<svg width="36" height="36" viewBox="0 0 36 36" fill="none" xmlns="http://www.w3.org/2000/svg">
<mask id="mask0_1_300" style="mask-type:alpha" maskUnits="userSpaceOnUse" x="0" y="0" width="36" height="36">
<circle cx="18.1531" cy="18.2527" r="17.5292" fill="#FFC145"/>
</mask>
<g mask="url(#mask0_1_300)">
<path d="M28.9858 37.8703V34.2895C28.9858 32.3901 28.4151 30.5685 27.3993 29.2254C26.3836 27.8823 25.0059 27.1278 23.5694 27.1278H12.7365C11.3 27.1278 9.92233 27.8823 8.90656 29.2254C7.89078 30.5685 7.32013 32.3901 7.32013 34.2895V37.8703" fill="#197BBD"/>
<path d="M18.1516 21.7106C21.143 21.7106 23.568 19.2856 23.568 16.2942C23.568 13.3028 21.143 10.8778 18.1516 10.8778C15.1602 10.8778 12.7352 13.3028 12.7352 16.2942C12.7352 19.2856 15.1602 21.7106 18.1516 21.7106Z" fill="white"/>
</g>
</svg>
