<svg width="87" height="31" viewBox="0 0 87 31" fill="none" xmlns="http://www.w3.org/2000/svg">
<path d="M6.07449 7.87261C6.7109 7.87261 7.26357 7.9396 7.73249 8.07358C8.21259 8.20756 8.58104 8.39737 8.83783 8.643C9.10579 8.87746 9.23977 9.16217 9.23977 9.49712C9.23977 9.72042 9.17278 9.93255 9.0388 10.1335C8.90482 10.3233 8.70943 10.4182 8.45264 10.4182C8.274 10.4182 8.12327 10.3959 8.00045 10.3512C7.88881 10.2954 7.78832 10.2284 7.699 10.1503C7.60968 10.0721 7.50361 9.99955 7.3808 9.93255C7.26915 9.86556 7.09609 9.81532 6.86163 9.78183C6.63833 9.73717 6.47085 9.71484 6.3592 9.71484C5.78979 9.71484 5.30411 9.83765 4.90217 10.0833C4.51139 10.3289 4.20994 10.6639 3.9978 11.0881C3.78567 11.5012 3.6796 11.9813 3.6796 12.5284C3.6796 13.0643 3.78567 13.5444 3.9978 13.9687C4.2211 14.3818 4.52256 14.7112 4.90217 14.9568C5.29294 15.2024 5.73954 15.3253 6.24197 15.3253C6.52109 15.3253 6.76114 15.3085 6.96211 15.275C7.16308 15.2415 7.33055 15.1913 7.46453 15.1243C7.62084 15.035 7.76041 14.9401 7.88322 14.8396C8.00604 14.7391 8.19026 14.6888 8.43589 14.6888C8.72618 14.6888 8.94948 14.7837 9.10579 14.9736C9.2621 15.1522 9.34026 15.3755 9.34026 15.6435C9.34026 15.9226 9.18395 16.1794 8.87133 16.4138C8.55871 16.6371 8.1456 16.8214 7.63201 16.9665C7.12959 17.1005 6.5825 17.1675 5.99075 17.1675C5.10872 17.1675 4.34392 16.9665 3.69635 16.5646C3.04878 16.1515 2.54635 15.5932 2.18907 14.8898C1.84296 14.1864 1.6699 13.3993 1.6699 12.5284C1.6699 11.6129 1.85412 10.809 2.22257 10.1168C2.60218 9.41338 3.12135 8.8663 3.78009 8.47552C4.44999 8.07358 5.21479 7.87261 6.07449 7.87261ZM12.9666 15.9784C12.9666 16.2687 12.8661 16.5143 12.6652 16.7153C12.4754 16.9051 12.2353 17 11.945 17C11.6659 17 11.4314 16.9051 11.2416 16.7153C11.0518 16.5143 10.9569 16.2687 10.9569 15.9784V5.62845C10.9569 5.33816 11.0518 5.09811 11.2416 4.9083C11.4426 4.70733 11.6882 4.60685 11.9785 4.60685C12.2688 4.60685 12.5033 4.70733 12.6819 4.9083C12.8717 5.09811 12.9666 5.33816 12.9666 5.62845V15.9784ZM23.8318 12.5284C23.8318 13.4439 23.6253 14.2534 23.2122 14.9568C22.8102 15.649 22.2631 16.1905 21.5709 16.5813C20.8898 16.9721 20.125 17.1675 19.2765 17.1675C18.428 17.1675 17.6576 16.9721 16.9653 16.5813C16.2843 16.1905 15.7372 15.649 15.3241 14.9568C14.9221 14.2534 14.7212 13.4439 14.7212 12.5284C14.7212 11.6129 14.9221 10.809 15.3241 10.1168C15.7372 9.41338 16.2843 8.8663 16.9653 8.47552C17.6576 8.07358 18.428 7.87261 19.2765 7.87261C20.125 7.87261 20.8898 8.07358 21.5709 8.47552C22.2631 8.8663 22.8102 9.41338 23.2122 10.1168C23.6253 10.809 23.8318 11.6129 23.8318 12.5284ZM21.8221 12.5284C21.8221 11.959 21.7049 11.4677 21.4704 11.0546C21.2471 10.6304 20.9401 10.301 20.5493 10.0665C20.1697 9.83207 19.7454 9.71484 19.2765 9.71484C18.8076 9.71484 18.3777 9.83207 17.9869 10.0665C17.6073 10.301 17.3003 10.6304 17.0658 11.0546C16.8425 11.4677 16.7309 11.959 16.7309 12.5284C16.7309 13.0867 16.8425 13.5779 17.0658 14.0022C17.3003 14.4153 17.6073 14.7391 17.9869 14.9736C18.3777 15.208 18.8076 15.3253 19.2765 15.3253C19.7454 15.3253 20.1697 15.208 20.5493 14.9736C20.9401 14.7391 21.2471 14.4153 21.4704 14.0022C21.7049 13.5779 21.8221 13.0867 21.8221 12.5284ZM32.2395 8.04009C32.5297 8.04009 32.7698 8.14057 32.9596 8.34154C33.1494 8.53135 33.2443 8.7714 33.2443 9.06168V13.3155C33.2443 14.499 32.9149 15.4369 32.2562 16.1291C31.5975 16.8214 30.6484 17.1675 29.4091 17.1675C28.1698 17.1675 27.2208 16.8214 26.562 16.1291C25.9145 15.4369 25.5907 14.499 25.5907 13.3155V9.06168C25.5907 8.7714 25.6856 8.53135 25.8754 8.34154C26.0652 8.14057 26.3053 8.04009 26.5955 8.04009C26.8858 8.04009 27.1259 8.14057 27.3157 8.34154C27.5055 8.53135 27.6004 8.7714 27.6004 9.06168V13.3155C27.6004 13.9966 27.7511 14.5046 28.0526 14.8396C28.354 15.1634 28.8062 15.3253 29.4091 15.3253C30.0232 15.3253 30.481 15.1634 30.7824 14.8396C31.0839 14.5046 31.2346 13.9966 31.2346 13.3155V9.06168C31.2346 8.7714 31.3295 8.53135 31.5193 8.34154C31.7091 8.14057 31.9492 8.04009 32.2395 8.04009ZM42.7554 4.60685C43.0457 4.60685 43.2858 4.70175 43.4756 4.89156C43.6654 5.08136 43.7603 5.32699 43.7603 5.62845V15.9784C43.7603 16.2687 43.6654 16.5143 43.4756 16.7153C43.2858 16.9051 43.0457 17 42.7554 17C42.4652 17 42.2251 16.9051 42.0353 16.7153C41.8455 16.5143 41.7506 16.2687 41.7506 15.9784V15.1578L42.119 15.3085C42.119 15.4536 42.0409 15.6323 41.8846 15.8444C41.7283 16.0454 41.5161 16.2464 41.2482 16.4473C40.9802 16.6483 40.662 16.8214 40.2936 16.9665C39.9363 17.1005 39.5455 17.1675 39.1212 17.1675C38.3509 17.1675 37.653 16.9721 37.0278 16.5813C36.4026 16.1794 35.9057 15.6323 35.5373 14.9401C35.18 14.2367 35.0014 13.4328 35.0014 12.5284C35.0014 11.6129 35.18 10.809 35.5373 10.1168C35.9057 9.41338 36.397 8.8663 37.0111 8.47552C37.6251 8.07358 38.3062 7.87261 39.0542 7.87261C39.5343 7.87261 39.9754 7.94519 40.3773 8.09033C40.7792 8.23547 41.1254 8.4197 41.4156 8.643C41.7171 8.8663 41.946 9.09518 42.1023 9.32964C42.2698 9.55294 42.3535 9.74275 42.3535 9.89906L41.7506 10.1168V5.62845C41.7506 5.33816 41.8455 5.09811 42.0353 4.9083C42.2251 4.70733 42.4652 4.60685 42.7554 4.60685ZM39.3724 15.3253C39.8637 15.3253 40.2936 15.2024 40.662 14.9568C41.0305 14.7112 41.3152 14.3762 41.5161 13.952C41.7283 13.5277 41.8343 13.0532 41.8343 12.5284C41.8343 11.9925 41.7283 11.5124 41.5161 11.0881C41.3152 10.6639 41.0305 10.3289 40.662 10.0833C40.2936 9.83765 39.8637 9.71484 39.3724 9.71484C38.8924 9.71484 38.4681 9.83765 38.0996 10.0833C37.7312 10.3289 37.4409 10.6639 37.2288 11.0881C37.0278 11.5124 36.9273 11.9925 36.9273 12.5284C36.9273 13.0532 37.0278 13.5277 37.2288 13.952C37.4409 14.3762 37.7312 14.7112 38.0996 14.9568C38.4681 15.2024 38.8924 15.3253 39.3724 15.3253ZM49.9222 7.87261C50.5586 7.87261 51.1113 7.9396 51.5802 8.07358C52.0603 8.20756 52.4287 8.39737 52.6855 8.643C52.9535 8.87746 53.0875 9.16217 53.0875 9.49712C53.0875 9.72042 53.0205 9.93255 52.8865 10.1335C52.7525 10.3233 52.5571 10.4182 52.3003 10.4182C52.1217 10.4182 51.971 10.3959 51.8482 10.3512C51.7365 10.2954 51.636 10.2284 51.5467 10.1503C51.4574 10.0721 51.3513 9.99955 51.2285 9.93255C51.1168 9.86556 50.9438 9.81532 50.7093 9.78183C50.486 9.73717 50.3186 9.71484 50.2069 9.71484C49.6375 9.71484 49.1518 9.83765 48.7499 10.0833C48.3591 10.3289 48.0576 10.6639 47.8455 11.0881C47.6334 11.5012 47.5273 11.9813 47.5273 12.5284C47.5273 13.0643 47.6334 13.5444 47.8455 13.9687C48.0688 14.3818 48.3703 14.7112 48.7499 14.9568C49.1406 15.2024 49.5872 15.3253 50.0897 15.3253C50.3688 15.3253 50.6088 15.3085 50.8098 15.275C51.0108 15.2415 51.1783 15.1913 51.3122 15.1243C51.4685 15.035 51.6081 14.9401 51.7309 14.8396C51.8537 14.7391 52.038 14.6888 52.2836 14.6888C52.5739 14.6888 52.7972 14.7837 52.9535 14.9736C53.1098 15.1522 53.188 15.3755 53.188 15.6435C53.188 15.9226 53.0316 16.1794 52.719 16.4138C52.4064 16.6371 51.9933 16.8214 51.4797 16.9665C50.9773 17.1005 50.4302 17.1675 49.8385 17.1675C48.9564 17.1675 48.1916 16.9665 47.544 16.5646C46.8965 16.1515 46.3941 15.5932 46.0368 14.8898C45.6907 14.1864 45.5176 13.3993 45.5176 12.5284C45.5176 11.6129 45.7018 10.809 46.0703 10.1168C46.4499 9.41338 46.9691 8.8663 47.6278 8.47552C48.2977 8.07358 49.0625 7.87261 49.9222 7.87261ZM61.9725 7.87261C62.2628 7.87261 62.5029 7.96752 62.6927 8.15732C62.8825 8.34712 62.9774 8.59275 62.9774 8.89421V15.9784C62.9774 16.2687 62.8825 16.5143 62.6927 16.7153C62.5029 16.9051 62.2628 17 61.9725 17C61.6823 17 61.4422 16.9051 61.2524 16.7153C61.0626 16.5143 60.9677 16.2687 60.9677 15.9784V15.1578L61.3361 15.3085C61.3361 15.4536 61.258 15.6323 61.1017 15.8444C60.9454 16.0454 60.7332 16.2464 60.4653 16.4473C60.1973 16.6483 59.8791 16.8214 59.5107 16.9665C59.1534 17.1005 58.7626 17.1675 58.3383 17.1675C57.568 17.1675 56.8701 16.9721 56.2449 16.5813C55.6197 16.1794 55.1228 15.6323 54.7544 14.9401C54.3971 14.2367 54.2185 13.4328 54.2185 12.5284C54.2185 11.6129 54.3971 10.809 54.7544 10.1168C55.1228 9.41338 55.6141 8.8663 56.2282 8.47552C56.8422 8.07358 57.5233 7.87261 58.2713 7.87261C58.7514 7.87261 59.1925 7.94519 59.5944 8.09033C59.9963 8.23547 60.3425 8.4197 60.6327 8.643C60.9342 8.8663 61.1631 9.09518 61.3194 9.32964C61.4869 9.55294 61.5706 9.74275 61.5706 9.89906L60.9677 10.1168V8.89421C60.9677 8.60392 61.0626 8.36387 61.2524 8.17407C61.4422 7.9731 61.6823 7.87261 61.9725 7.87261ZM58.5896 15.3253C59.0808 15.3253 59.5107 15.2024 59.8791 14.9568C60.2476 14.7112 60.5323 14.3762 60.7332 13.952C60.9454 13.5277 61.0514 13.0532 61.0514 12.5284C61.0514 11.9925 60.9454 11.5124 60.7332 11.0881C60.5323 10.6639 60.2476 10.3289 59.8791 10.0833C59.5107 9.83765 59.0808 9.71484 58.5896 9.71484C58.1095 9.71484 57.6852 9.83765 57.3167 10.0833C56.9483 10.3289 56.658 10.6639 56.4459 11.0881C56.2449 11.5124 56.1444 11.9925 56.1444 12.5284C56.1444 13.0532 56.2449 13.5277 56.4459 13.952C56.658 14.3762 56.9483 14.7112 57.3167 14.9568C57.6852 15.2024 58.1095 15.3253 58.5896 15.3253ZM64.6342 15.61C64.5226 15.4536 64.4723 15.2527 64.4835 15.007C64.4947 14.7614 64.6398 14.5493 64.9189 14.3706C65.0976 14.259 65.2874 14.2143 65.4883 14.2367C65.6893 14.2478 65.8847 14.3483 66.0745 14.5381C66.3983 14.8619 66.7388 15.1131 67.0961 15.2918C67.4534 15.4704 67.9 15.5597 68.4359 15.5597C68.6034 15.5485 68.7876 15.5262 68.9886 15.4927C69.1895 15.4481 69.3626 15.3587 69.5077 15.2248C69.6641 15.0796 69.7422 14.8619 69.7422 14.5716C69.7422 14.326 69.6585 14.1306 69.491 13.9854C69.3235 13.8403 69.1002 13.7175 68.8211 13.617C68.5531 13.5165 68.2517 13.4216 67.9167 13.3323C67.5706 13.2318 67.2133 13.1202 66.8449 12.9973C66.4876 12.8745 66.1582 12.7182 65.8568 12.5284C65.5553 12.3274 65.3097 12.0651 65.1199 11.7413C64.9301 11.4175 64.8352 11.01 64.8352 10.5187C64.8352 9.96047 64.9915 9.48595 65.3041 9.09518C65.6167 8.7044 66.0187 8.40295 66.5099 8.19081C67.0124 7.97868 67.5371 7.87261 68.0842 7.87261C68.4303 7.87261 68.7932 7.91727 69.1728 8.00659C69.5524 8.08475 69.9153 8.21873 70.2614 8.40853C70.6075 8.58717 70.8978 8.82722 71.1322 9.12867C71.2551 9.29615 71.3276 9.49712 71.35 9.73158C71.3723 9.96605 71.2662 10.1782 71.0318 10.368C70.8643 10.502 70.6689 10.5634 70.4456 10.5522C70.2223 10.5299 70.0381 10.4517 69.8929 10.3177C69.7031 10.0721 69.4463 9.87673 69.1225 9.73158C68.8099 9.58644 68.4471 9.51387 68.034 9.51387C67.8665 9.51387 67.6823 9.5362 67.4813 9.58086C67.2915 9.61435 67.124 9.69809 66.9789 9.83207C66.8337 9.95488 66.7612 10.1559 66.7612 10.435C66.7612 10.6918 66.8449 10.8983 67.0124 11.0546C67.1798 11.1998 67.4031 11.3226 67.6823 11.4231C67.9726 11.5124 68.2796 11.6017 68.6034 11.691C68.9383 11.7804 69.2789 11.8864 69.625 12.0092C69.9711 12.1321 70.2893 12.294 70.5796 12.4949C70.8699 12.6959 71.1043 12.9583 71.283 13.2821C71.4616 13.5947 71.5509 13.9966 71.5509 14.4879C71.5509 15.0573 71.3835 15.543 71.0485 15.9449C70.7136 16.3468 70.2949 16.6539 69.7924 16.866C69.29 17.067 68.7764 17.1675 68.2517 17.1675C67.5929 17.1675 66.9342 17.0558 66.2755 16.8325C65.6167 16.5981 65.0697 16.1905 64.6342 15.61ZM77.9388 7.87261C78.7427 7.87261 79.3512 8.04567 79.7643 8.39179C80.1885 8.7379 80.4788 9.20125 80.6351 9.78183C80.7915 10.3512 80.8696 10.9876 80.8696 11.691V15.9784C80.8696 16.2687 80.7747 16.5143 80.5849 16.7153C80.3951 16.9051 80.1551 17 79.8648 17C79.5745 17 79.3344 16.9051 79.1446 16.7153C78.9548 16.5143 78.8599 16.2687 78.8599 15.9784V11.691C78.8599 11.3226 78.8153 10.9932 78.7259 10.7029C78.6366 10.4015 78.4747 10.1614 78.2403 9.9828C78.0058 9.80416 77.6708 9.71484 77.2354 9.71484C76.8111 9.71484 76.4483 9.80416 76.1468 9.9828C75.8454 10.1614 75.6165 10.4015 75.4602 10.7029C75.315 10.9932 75.2425 11.3226 75.2425 11.691V15.9784C75.2425 16.2687 75.1476 16.5143 74.9577 16.7153C74.7679 16.9051 74.5279 17 74.2376 17C73.9473 17 73.7073 16.9051 73.5175 16.7153C73.3277 16.5143 73.2328 16.2687 73.2328 15.9784V5.62845C73.2328 5.33816 73.3277 5.09811 73.5175 4.9083C73.7073 4.70733 73.9473 4.60685 74.2376 4.60685C74.5279 4.60685 74.7679 4.70733 74.9577 4.9083C75.1476 5.09811 75.2425 5.33816 75.2425 5.62845V9.78183L74.9912 9.73158C75.0917 9.54178 75.2313 9.34081 75.4099 9.12867C75.5886 8.90537 75.8063 8.69882 76.0631 8.50902C76.3199 8.31921 76.6046 8.16848 76.9172 8.05683C77.2298 7.93402 77.5704 7.87261 77.9388 7.87261Z" fill="white"/>
<path d="M3.27606 25.9261C3.47618 25.9261 3.6506 25.9017 3.79934 25.8531C3.94808 25.8017 4.07112 25.73 4.16848 25.6381C4.26854 25.5434 4.34291 25.4298 4.39158 25.2973C4.44026 25.1621 4.4646 25.012 4.4646 24.8471C4.4646 24.6902 4.44026 24.5482 4.39158 24.4211C4.34291 24.294 4.26989 24.1859 4.17254 24.0966C4.07518 24.0074 3.95213 23.9398 3.8034 23.8938C3.65466 23.8451 3.47888 23.8208 3.27606 23.8208H2.46071V25.9261H3.27606ZM3.27606 22.977C3.66818 22.977 4.00757 23.023 4.29423 23.115C4.58089 23.2069 4.81751 23.3354 5.00411 23.5003C5.19071 23.6653 5.32863 23.8627 5.41787 24.0926C5.50982 24.3224 5.55579 24.5739 5.55579 24.8471C5.55579 25.131 5.50846 25.392 5.41381 25.63C5.31916 25.8652 5.17719 26.0681 4.98788 26.2384C4.79858 26.4088 4.5606 26.5413 4.27395 26.636C3.98999 26.7306 3.65736 26.7779 3.27606 26.7779H2.46071V28.8427H1.36952V22.977H3.27606ZM8.16523 25.7679C8.37076 25.7679 8.54925 25.7422 8.70069 25.6908C8.85483 25.6394 8.98058 25.5691 9.07794 25.4799C9.178 25.3879 9.25237 25.2798 9.30104 25.1554C9.34972 25.031 9.37406 24.8944 9.37406 24.7457C9.37406 24.4482 9.27535 24.2197 9.07794 24.0601C8.88323 23.9006 8.5844 23.8208 8.18146 23.8208H7.48375V25.7679H8.16523ZM10.9723 28.8427H9.98658C9.79999 28.8427 9.66477 28.7697 9.58094 28.6236L8.34777 26.7455C8.3018 26.6752 8.25042 26.6251 8.19363 26.5954C8.13954 26.5657 8.05841 26.5508 7.95024 26.5508H7.48375V28.8427H6.39256V22.977H8.18146C8.57899 22.977 8.91974 23.019 9.20369 23.1028C9.49034 23.1839 9.72427 23.2989 9.90546 23.4476C10.0893 23.5963 10.2246 23.7748 10.3111 23.983C10.3976 24.1886 10.4409 24.4157 10.4409 24.6645C10.4409 24.8619 10.4112 25.0485 10.3517 25.2243C10.2949 25.4001 10.211 25.5597 10.1002 25.703C9.99199 25.8463 9.85678 25.9721 9.69452 26.0802C9.53497 26.1884 9.35242 26.2736 9.1469 26.3358C9.21721 26.3764 9.28211 26.425 9.34161 26.4818C9.4011 26.5359 9.45519 26.6008 9.50387 26.6765L10.9723 28.8427ZM12.701 23.8451V25.4718H14.7536V26.3115H12.701V27.9705H15.3052V28.8427H11.6057V22.977H15.3052V23.8451H12.701ZM22.6328 22.977V28.8427H21.6714V25.0539C21.6714 24.9025 21.6795 24.7389 21.6957 24.5631L19.9231 27.8935C19.8392 28.053 19.7108 28.1328 19.5377 28.1328H19.3836C19.2105 28.1328 19.082 28.053 18.9982 27.8935L17.2052 24.5509C17.2134 24.6402 17.2201 24.7281 17.2255 24.8146C17.2309 24.9012 17.2336 24.9809 17.2336 25.0539V28.8427H16.2723V22.977H17.0957C17.1444 22.977 17.1863 22.9784 17.2215 22.9811C17.2566 22.9838 17.2877 22.9906 17.3148 23.0014C17.3445 23.0122 17.3702 23.0298 17.3918 23.0541C17.4162 23.0785 17.4392 23.1109 17.4608 23.1515L19.2173 26.4088C19.2632 26.4953 19.3051 26.5846 19.343 26.6765C19.3836 26.7685 19.4228 26.8631 19.4606 26.9605C19.4985 26.8604 19.5377 26.7644 19.5783 26.6725C19.6188 26.5778 19.6621 26.4872 19.7081 26.4007L21.4402 23.1515C21.4618 23.1109 21.4848 23.0785 21.5092 23.0541C21.5335 23.0298 21.5592 23.0122 21.5862 23.0014C21.616 22.9906 21.6484 22.9838 21.6836 22.9811C21.7187 22.9784 21.7607 22.977 21.8093 22.977H22.6328ZM25.0368 28.8427H23.9415V22.977H25.0368V28.8427ZM28.7109 27.9624C28.9218 27.9624 29.1098 27.9273 29.2747 27.857C29.4424 27.7866 29.583 27.6879 29.6966 27.5608C29.8102 27.4337 29.8967 27.2796 29.9562 27.0984C30.0184 26.9172 30.0495 26.7144 30.0495 26.4899V22.977H31.1407V26.4899C31.1407 26.8388 31.0839 27.162 30.9703 27.4594C30.8595 27.7542 30.6986 28.0098 30.4876 28.2261C30.2794 28.4397 30.0252 28.6074 29.725 28.7291C29.4248 28.8481 29.0868 28.9076 28.7109 28.9076C28.3323 28.9076 27.9929 28.8481 27.6927 28.7291C27.3925 28.6074 27.137 28.4397 26.926 28.2261C26.7178 28.0098 26.5569 27.7542 26.4433 27.4594C26.3325 27.162 26.277 26.8388 26.277 26.4899V22.977H27.3682V26.4859C27.3682 26.7103 27.3979 26.9132 27.4574 27.0943C27.5196 27.2755 27.6075 27.431 27.7211 27.5608C27.8374 27.6879 27.978 27.7866 28.143 27.857C28.3107 27.9273 28.5 27.9624 28.7109 27.9624ZM38.7319 22.977V28.8427H37.7705V25.0539C37.7705 24.9025 37.7786 24.7389 37.7948 24.5631L36.0222 27.8935C35.9383 28.053 35.8099 28.1328 35.6368 28.1328H35.4826C35.3096 28.1328 35.1811 28.053 35.0973 27.8935L33.3043 24.5509C33.3124 24.6402 33.3192 24.7281 33.3246 24.8146C33.33 24.9012 33.3327 24.9809 33.3327 25.0539V28.8427H32.3713V22.977H33.1948C33.2435 22.977 33.2854 22.9784 33.3206 22.9811C33.3557 22.9838 33.3868 22.9906 33.4138 23.0014C33.4436 23.0122 33.4693 23.0298 33.4909 23.0541C33.5153 23.0785 33.5382 23.1109 33.5599 23.1515L35.3163 26.4088C35.3623 26.4953 35.4042 26.5846 35.4421 26.6765C35.4826 26.7685 35.5219 26.8631 35.5597 26.9605C35.5976 26.8604 35.6368 26.7644 35.6774 26.6725C35.7179 26.5778 35.7612 26.4872 35.8072 26.4007L37.5393 23.1515C37.5609 23.1109 37.5839 23.0785 37.6082 23.0541C37.6326 23.0298 37.6583 23.0122 37.6853 23.0014C37.7151 22.9906 37.7475 22.9838 37.7827 22.9811C37.8178 22.9784 37.8597 22.977 37.9084 22.977H38.7319ZM44.8431 26.6279L44.1292 24.6767C44.094 24.5902 44.0575 24.4874 44.0197 24.3684C43.9818 24.2494 43.9439 24.121 43.9061 23.983C43.8709 24.121 43.8344 24.2508 43.7966 24.3725C43.7587 24.4915 43.7222 24.5956 43.687 24.6848L42.9771 26.6279H44.8431ZM46.7699 28.8427H45.9262C45.8315 28.8427 45.7545 28.8197 45.695 28.7737C45.6355 28.725 45.5909 28.6655 45.5611 28.5952L45.123 27.3986H42.6932L42.2551 28.5952C42.2335 28.6574 42.1915 28.7142 42.1293 28.7656C42.0671 28.817 41.9901 28.8427 41.8981 28.8427H41.0463L43.3544 22.977H44.4659L46.7699 28.8427ZM51.2308 27.4594C51.2903 27.4594 51.3431 27.4824 51.389 27.5284L51.819 27.9949C51.581 28.2897 51.2876 28.5155 50.9388 28.6723C50.5926 28.8292 50.1762 28.9076 49.6894 28.9076C49.254 28.9076 48.8619 28.8332 48.513 28.6845C48.1669 28.5357 47.8707 28.3289 47.6246 28.0638C47.3786 27.7988 47.1893 27.4824 47.0567 27.1146C46.9269 26.7468 46.862 26.3453 46.862 25.9099C46.862 25.4691 46.9323 25.0661 47.073 24.701C47.2136 24.3332 47.411 24.0168 47.6652 23.7518C47.9221 23.4868 48.2277 23.2813 48.582 23.1352C48.9362 22.9865 49.3284 22.9121 49.7583 22.9121C50.1856 22.9121 50.5642 22.9824 50.8942 23.1231C51.2268 23.2637 51.5094 23.4476 51.742 23.6748L51.3769 24.1818C51.3552 24.2143 51.3268 24.2427 51.2917 24.267C51.2592 24.2913 51.2133 24.3035 51.1538 24.3035C51.1132 24.3035 51.0713 24.2927 51.028 24.2711C50.9847 24.2467 50.9374 24.2183 50.886 24.1859C50.8347 24.1507 50.7752 24.1128 50.7076 24.0723C50.6399 24.0317 50.5615 23.9952 50.4723 23.9628C50.383 23.9276 50.2789 23.8992 50.1599 23.8776C50.0436 23.8532 49.9084 23.8411 49.7543 23.8411C49.492 23.8411 49.2513 23.8884 49.0322 23.983C48.8159 24.075 48.6293 24.2102 48.4724 24.3887C48.3156 24.5645 48.1939 24.7808 48.1074 25.0377C48.0208 25.2919 47.9776 25.5826 47.9776 25.9099C47.9776 26.2398 48.0235 26.5332 48.1155 26.7901C48.2101 27.047 48.3372 27.2634 48.4968 27.4391C48.6563 27.6149 48.8443 27.7501 49.0606 27.8448C49.277 27.9367 49.5095 27.9827 49.7583 27.9827C49.9071 27.9827 50.0409 27.9746 50.1599 27.9584C50.2816 27.9421 50.3925 27.9165 50.4926 27.8813C50.5953 27.8461 50.6913 27.8015 50.7806 27.7474C50.8725 27.6906 50.9631 27.6217 51.0524 27.5406C51.0794 27.5162 51.1078 27.4973 51.1375 27.4838C51.1673 27.4675 51.1984 27.4594 51.2308 27.4594ZM56.4678 27.4594C56.5273 27.4594 56.58 27.4824 56.626 27.5284L57.056 27.9949C56.818 28.2897 56.5246 28.5155 56.1757 28.6723C55.8296 28.8292 55.4131 28.9076 54.9263 28.9076C54.4909 28.9076 54.0988 28.8332 53.75 28.6845C53.4038 28.5357 53.1077 28.3289 52.8616 28.0638C52.6155 27.7988 52.4262 27.4824 52.2937 27.1146C52.1639 26.7468 52.099 26.3453 52.099 25.9099C52.099 25.4691 52.1693 25.0661 52.3099 24.701C52.4505 24.3332 52.648 24.0168 52.9022 23.7518C53.1591 23.4868 53.4647 23.2813 53.8189 23.1352C54.1732 22.9865 54.5653 22.9121 54.9953 22.9121C55.4226 22.9121 55.8012 22.9824 56.1311 23.1231C56.4637 23.2637 56.7463 23.4476 56.9789 23.6748L56.6138 24.1818C56.5922 24.2143 56.5638 24.2427 56.5286 24.267C56.4962 24.2913 56.4502 24.3035 56.3907 24.3035C56.3502 24.3035 56.3082 24.2927 56.265 24.2711C56.2217 24.2467 56.1744 24.2183 56.123 24.1859C56.0716 24.1507 56.0121 24.1128 55.9445 24.0723C55.8769 24.0317 55.7985 23.9952 55.7092 23.9628C55.62 23.9276 55.5159 23.8992 55.3969 23.8776C55.2806 23.8532 55.1454 23.8411 54.9912 23.8411C54.7289 23.8411 54.4882 23.8884 54.2692 23.983C54.0528 24.075 53.8662 24.2102 53.7094 24.3887C53.5525 24.5645 53.4309 24.7808 53.3443 25.0377C53.2578 25.2919 53.2145 25.5826 53.2145 25.9099C53.2145 26.2398 53.2605 26.5332 53.3524 26.7901C53.4471 27.047 53.5742 27.2634 53.7337 27.4391C53.8933 27.6149 54.0812 27.7501 54.2976 27.8448C54.5139 27.9367 54.7465 27.9827 54.9953 27.9827C55.144 27.9827 55.2779 27.9746 55.3969 27.9584C55.5186 27.9421 55.6295 27.9165 55.7295 27.8813C55.8323 27.8461 55.9283 27.8015 56.0175 27.7474C56.1095 27.6906 56.2001 27.6217 56.2893 27.5406C56.3164 27.5162 56.3447 27.4973 56.3745 27.4838C56.4042 27.4675 56.4353 27.4594 56.4678 27.4594ZM63.2705 25.9099C63.2705 26.3398 63.1989 26.7387 63.0556 27.1065C62.9149 27.4716 62.7148 27.788 62.4552 28.0557C62.1956 28.3235 61.8832 28.533 61.5182 28.6845C61.1531 28.8332 60.7474 28.9076 60.3012 28.9076C59.8577 28.9076 59.4534 28.8332 59.0883 28.6845C58.7233 28.533 58.4096 28.3235 58.1472 28.0557C57.8876 27.788 57.6861 27.4716 57.5428 27.1065C57.3995 26.7387 57.3278 26.3398 57.3278 25.9099C57.3278 25.4799 57.3995 25.0823 57.5428 24.7173C57.6861 24.3495 57.8876 24.0317 58.1472 23.764C58.4096 23.4963 58.7233 23.288 59.0883 23.1393C59.4534 22.9879 59.8577 22.9121 60.3012 22.9121C60.5987 22.9121 60.8786 22.9473 61.1409 23.0176C61.4032 23.0852 61.6439 23.1826 61.863 23.3097C62.082 23.4341 62.2781 23.5869 62.4511 23.768C62.6269 23.9465 62.7757 24.1467 62.8973 24.3684C63.019 24.5902 63.111 24.8308 63.1732 25.0905C63.2381 25.3501 63.2705 25.6232 63.2705 25.9099ZM62.155 25.9099C62.155 25.588 62.1117 25.3 62.0252 25.0458C61.9387 24.7889 61.8156 24.5712 61.6561 24.3927C61.4965 24.2143 61.3018 24.0777 61.0719 23.983C60.8448 23.8884 60.5879 23.8411 60.3012 23.8411C60.0146 23.8411 59.7563 23.8884 59.5264 23.983C59.2993 24.0777 59.1046 24.2143 58.9423 24.3927C58.7827 24.5712 58.6597 24.7889 58.5732 25.0458C58.4866 25.3 58.4434 25.588 58.4434 25.9099C58.4434 26.2317 58.4866 26.521 58.5732 26.7779C58.6597 27.0321 58.7827 27.2485 58.9423 27.427C59.1046 27.6028 59.2993 27.738 59.5264 27.8326C59.7563 27.9273 60.0146 27.9746 60.3012 27.9746C60.5879 27.9746 60.8448 27.9273 61.0719 27.8326C61.3018 27.738 61.4965 27.6028 61.6561 27.427C61.8156 27.2485 61.9387 27.0321 62.0252 26.7779C62.1117 26.521 62.155 26.2317 62.155 25.9099ZM66.5897 27.9624C66.8006 27.9624 66.9886 27.9273 67.1535 27.857C67.3212 27.7866 67.4618 27.6879 67.5754 27.5608C67.689 27.4337 67.7755 27.2796 67.835 27.0984C67.8972 26.9172 67.9283 26.7144 67.9283 26.4899V22.977H69.0195V26.4899C69.0195 26.8388 68.9627 27.162 68.8491 27.4594C68.7382 27.7542 68.5773 28.0098 68.3664 28.2261C68.1582 28.4397 67.904 28.6074 67.6038 28.7291C67.3036 28.8481 66.9656 28.9076 66.5897 28.9076C66.2111 28.9076 65.8717 28.8481 65.5715 28.7291C65.2713 28.6074 65.0158 28.4397 64.8048 28.2261C64.5966 28.0098 64.4357 27.7542 64.3221 27.4594C64.2112 27.162 64.1558 26.8388 64.1558 26.4899V22.977H65.247V26.4859C65.247 26.7103 65.2767 26.9132 65.3362 27.0943C65.3984 27.2755 65.4863 27.431 65.5999 27.5608C65.7162 27.6879 65.8568 27.7866 66.0218 27.857C66.1894 27.9273 66.3787 27.9624 66.5897 27.9624ZM75.195 22.977V28.8427H74.6352C74.5486 28.8427 74.4756 28.8292 74.4161 28.8021C74.3593 28.7724 74.3039 28.7237 74.2498 28.6561L71.1872 24.7457C71.2034 24.9241 71.2115 25.0891 71.2115 25.2405V28.8427H70.2501V22.977H70.8221C70.8681 22.977 70.9073 22.9797 70.9397 22.9852C70.9749 22.9879 71.0046 22.996 71.029 23.0095C71.056 23.0203 71.0817 23.0379 71.106 23.0622C71.1304 23.0839 71.1574 23.1136 71.1872 23.1515L74.262 27.0781C74.2539 26.9835 74.2471 26.8902 74.2417 26.7982C74.2363 26.7063 74.2336 26.6211 74.2336 26.5427V22.977H75.195ZM80.5982 23.8735H78.8296V28.8427H77.7384V23.8735H75.9698V22.977H80.5982V23.8735Z" fill="white" fill-opacity="0.39"/>
</svg>
