<svg width="213" height="142" viewBox="0 0 213 142" fill="none" xmlns="http://www.w3.org/2000/svg">
<path d="M105.179 115.032C105.179 143.888 81.7864 167.281 52.93 167.281C24.0736 167.281 0.680908 143.888 0.680908 115.032C0.680908 99.8179 7.18355 86.1226 17.5612 76.5737C26.8666 68.0114 39.2877 62.7829 52.93 62.7829C81.7864 62.7829 105.179 86.1757 105.179 115.032Z" fill="white" fill-opacity="0.12"/>
<path d="M105.179 115.032C105.179 143.888 81.7864 167.281 52.93 167.281H203.725C174.868 167.281 151.475 143.888 151.475 115.032C151.475 111.346 151.857 107.749 152.583 104.279C150.123 104.634 147.606 104.818 145.047 104.818C119.686 104.818 98.5456 86.7494 93.7961 62.7829H59.7136H52.93C81.7864 62.7829 105.179 86.1757 105.179 115.032Z" fill="white" fill-opacity="0.12"/>
<path d="M93.7961 62.7829C93.1415 59.4797 92.7982 56.0645 92.7982 52.5691C92.7982 47.9785 93.3903 43.5261 94.5021 39.2842C90.136 47.1171 77.0657 62.7829 59.7136 62.7829H93.7961Z" fill="white" fill-opacity="0.12"/>
<path fill-rule="evenodd" clip-rule="evenodd" d="M203.725 167.281C232.581 167.281 255.974 143.888 255.974 115.032C255.974 86.1757 232.581 62.7829 203.725 62.7829C201.165 62.7829 198.649 62.9669 196.189 63.3224C191.735 84.6107 174.325 101.138 152.583 104.279C151.857 107.749 151.475 111.346 151.475 115.032C151.475 143.888 174.868 167.281 203.725 167.281Z" fill="white" fill-opacity="0.12"/>
<path d="M196.189 63.3224C191.735 84.6107 174.325 101.138 152.583 104.279C157.037 82.9905 174.447 66.4631 196.189 63.3224Z" fill="white" fill-opacity="0.12"/>
<path d="M197.296 52.5691C197.296 23.7127 173.904 0.320007 145.047 0.320007C120.782 0.320007 100.379 16.8618 94.5021 39.2842C93.3903 43.5261 92.7982 47.9785 92.7982 52.5691C92.7982 56.0645 93.1415 59.4797 93.7961 62.7829C98.5456 86.7494 119.686 104.818 145.047 104.818C147.606 104.818 150.123 104.634 152.583 104.279C157.037 82.9905 174.447 66.4631 196.189 63.3224C196.915 59.852 197.296 56.2551 197.296 52.5691Z" fill="white" fill-opacity="0.12"/>
</svg>
