<svg width="22" height="22" viewBox="0 0 22 22" fill="none" xmlns="http://www.w3.org/2000/svg">
<rect x="0.948242" y="0.931641" width="20.4006" height="20.4006" rx="6.00032" fill="#EFEFEF"/>
<path d="M9.10525 16.8413C9.38141 16.8413 9.60528 16.6174 9.60528 16.3412C9.60528 16.0651 9.38141 15.8412 9.10525 15.8412C8.82909 15.8412 8.60522 16.0651 8.60522 16.3412C8.60522 16.6174 8.82909 16.8413 9.10525 16.8413Z" stroke="#404040" stroke-width="0.996054" stroke-linecap="round" stroke-linejoin="round"/>
<path d="M14.6053 16.8413C14.8814 16.8413 15.1053 16.6174 15.1053 16.3412C15.1053 16.0651 14.8814 15.8412 14.6053 15.8412C14.3291 15.8412 14.1052 16.0651 14.1052 16.3412C14.1052 16.6174 14.3291 16.8413 14.6053 16.8413Z" stroke="#404040" stroke-width="0.996054" stroke-linecap="round" stroke-linejoin="round"/>
<path d="M5.10449 6.34033H7.1046L8.44467 13.0357C8.4904 13.2659 8.61564 13.4727 8.79847 13.6199C8.98129 13.7671 9.21006 13.8452 9.44473 13.8407H14.305C14.5397 13.8452 14.7684 13.7671 14.9513 13.6199C15.1341 13.4727 15.2593 13.2659 15.305 13.0357L16.1051 8.84047H7.60463" stroke="#404040" stroke-width="0.996054" stroke-linecap="round" stroke-linejoin="round"/>
</svg>
