<svg width="72" height="80" viewBox="0 0 72 80" fill="none" xmlns="http://www.w3.org/2000/svg">
<path d="M46.1739 23.4107L45.9545 24.4598L47.0153 24.3066C47.5366 24.2313 48.07 24.1923 48.613 24.1923C54.7274 24.1923 59.6841 29.1489 59.6841 35.2633C59.6841 41.3777 54.7274 46.3344 48.613 46.3344H14.4966C8.38222 46.3344 3.42554 41.3777 3.42554 35.2633C3.42554 32.0396 4.80241 29.1386 7.00243 27.1142C8.97475 25.2994 11.6055 24.1923 14.4966 24.1923H16.0314C18.2257 24.1923 20.1093 23.2026 21.5434 22.029C22.9771 20.8558 24.022 19.4511 24.5571 18.491L24.6034 18.4079L24.6275 18.316C25.8729 13.5647 30.197 10.0604 35.3376 10.0604C41.452 10.0604 46.4087 15.0171 46.4087 21.1314C46.4087 21.9135 46.3277 22.6758 46.1739 23.4107Z" stroke="#197BBD" stroke-width="1.5"/>
<path d="M40.4296 62.1393V52.6489" stroke="#197BBD" stroke-width="1.5" stroke-linecap="round" stroke-linejoin="round"/>
<path d="M35.6854 57.3941L40.4307 52.6489L45.1759 57.3941" stroke="#197BBD" stroke-width="1.5" stroke-linecap="round" stroke-linejoin="round"/>
<path d="M23.4834 44.515L28.2286 39.7698L32.9739 44.515" stroke="#197BBD" stroke-width="0.683017" stroke-linecap="round" stroke-linejoin="round"/>
<g clip-path="url(#clip0_1_152)">
<path d="M25.3369 60.1864L16.7088 68.8145C16.1793 69.344 16.1793 70.2024 16.7088 70.7319L22.4609 76.484C22.9904 77.0134 23.8488 77.0134 24.3782 76.484L33.0064 67.8558C33.5358 67.3264 33.5358 66.468 33.0064 65.9385L27.2543 60.1864C26.7248 59.6569 25.8664 59.6569 25.3369 60.1864Z" stroke="#197BBD" stroke-width="1.5" stroke-linecap="round" stroke-linejoin="round"/>
<path d="M18.6263 72.6489L29.1718 62.1034" stroke="#197BBD" stroke-width="1.5" stroke-linecap="round" stroke-linejoin="round"/>
</g>
<circle cx="17.5503" cy="17.6597" r="11.7215" transform="rotate(-30 17.5503 17.6597)" stroke="#197BBD" stroke-width="1.5"/>
<path d="M21.2506 17.1632C21.4688 17.541 21.5677 17.9494 21.5473 18.3882C21.5351 18.8224 21.4035 19.2488 21.1524 19.6675C20.9096 20.0815 20.5642 20.4507 20.1162 20.775L20.92 22.1672C20.9817 22.274 20.9945 22.3816 20.9585 22.4899C20.9355 22.6018 20.8706 22.6885 20.7638 22.7502C20.657 22.8118 20.5453 22.827 20.4287 22.7958C20.3251 22.768 20.2424 22.7008 20.1808 22.594L19.3841 21.2141C18.8477 21.48 18.3173 21.6329 17.7928 21.6729C17.2683 21.7129 16.704 21.6554 16.0998 21.5005C15.9538 21.4752 15.8476 21.4051 15.7812 21.2901C15.7243 21.1916 15.7091 21.0799 15.7356 20.9551C15.7703 20.8255 15.837 20.7323 15.9355 20.6754C16.0341 20.6185 16.1482 20.6074 16.2777 20.6421C17.2131 20.9344 18.1086 20.8828 18.9645 20.4872L16.9728 17.0375C16.0632 17.2451 15.3011 17.2908 14.6865 17.1748C14.0719 17.0587 13.5678 16.6598 13.1743 15.9781C12.8281 15.3785 12.7565 14.7518 12.9594 14.098C13.1576 13.436 13.5992 12.8635 14.284 12.3805L13.7363 11.4318C13.6747 11.325 13.6577 11.2198 13.6855 11.1162C13.7167 10.9996 13.7858 10.9104 13.8925 10.8488C13.9993 10.7872 14.1069 10.7743 14.2153 10.8103C14.3271 10.8333 14.4139 10.8982 14.4755 11.005L15.0161 11.9414C15.4752 11.7311 15.941 11.599 16.4137 11.5452C16.8863 11.4913 17.3159 11.5335 17.7024 11.6718C17.9062 11.7403 18.0365 11.8238 18.0934 11.9224C18.1456 12.0127 18.1543 12.1227 18.1196 12.2522C18.0802 12.3736 18.0112 12.4627 17.9126 12.5196C17.8305 12.567 17.744 12.5786 17.6534 12.5543C17.3317 12.4334 16.9738 12.3826 16.5798 12.402C16.1858 12.4214 15.8069 12.5143 15.4429 12.6806L17.3777 16.0317C17.977 15.8937 18.4996 15.822 18.9454 15.8165C19.3947 15.798 19.8169 15.8938 20.2119 16.1038C20.6104 16.3008 20.9566 16.6539 21.2506 17.1632ZM13.9239 15.5124C14.161 15.9231 14.4903 16.171 14.9118 16.2562C15.3416 16.3366 15.8697 16.3219 16.4962 16.2121L14.7037 13.1074C14.2441 13.4494 13.9423 13.8372 13.7984 14.2707C13.6497 14.696 13.6915 15.1099 13.9239 15.5124ZM19.6966 20.0481C20.1432 19.7026 20.4426 19.3107 20.5948 18.8724C20.7422 18.4259 20.7021 18.0056 20.4745 17.6113C20.2197 17.1889 19.8791 16.9311 19.4529 16.8377C19.0219 16.7361 18.4866 16.7385 17.8471 16.8448L19.6966 20.0481Z" fill="#197BBD"/>
<path d="M2.67554 35.262C2.67554 41.7906 7.96801 47.0831 14.4966 47.0831H48.613C55.1416 47.0831 60.4341 41.7906 60.4341 35.262C60.4341 28.7335 55.1416 23.441 48.613 23.441C48.034 23.441 47.4648 23.4826 46.908 23.563C47.0723 22.7779 47.1587 21.9641 47.1587 21.1302C47.1587 14.6016 41.8662 9.30911 35.3376 9.30911C29.8476 9.30911 25.2318 13.0516 23.902 18.1245C22.9142 19.8967 19.9572 23.441 16.0314 23.441H14.4966C11.4101 23.441 8.5999 24.6239 6.4946 26.5611C4.14672 28.7215 2.67554 31.8199 2.67554 35.262Z" fill="white"/>
<path d="M46.1739 23.4095L45.9545 24.4586L47.0153 24.3053C47.5366 24.23 48.07 24.191 48.613 24.191C54.7274 24.191 59.6841 29.1477 59.6841 35.262C59.6841 41.3764 54.7274 46.3331 48.613 46.3331H14.4966C8.38222 46.3331 3.42554 41.3764 3.42554 35.262C3.42554 32.0383 4.80241 29.1373 7.00243 27.113C8.97475 25.2982 11.6055 24.191 14.4966 24.191H16.0314C18.2257 24.191 20.1093 23.2013 21.5434 22.0277C22.9771 20.8545 24.022 19.4498 24.5571 18.4897L24.6034 18.4066L24.6275 18.3147C25.8729 13.5634 30.197 10.0591 35.3376 10.0591C41.452 10.0591 46.4087 15.0158 46.4087 21.1302C46.4087 21.9122 46.3277 22.6745 46.1739 23.4095Z" stroke="#197BBD" stroke-width="1.5"/>
<path d="M68.7413 14.276C68.5902 15.9113 67.9764 17.4698 66.9719 18.7691C65.9673 20.0684 64.6135 21.0547 63.0688 21.6127C61.5242 22.1706 59.8526 22.2771 58.2496 21.9197C56.6466 21.5622 55.1786 20.7557 54.0173 19.5944C52.856 18.4331 52.0494 16.965 51.692 15.3621C51.3346 13.7591 51.4411 12.0875 51.999 10.5428C52.5569 8.99816 53.5433 7.64434 54.8425 6.63979C56.1418 5.63523 57.7003 5.02148 59.3357 4.87035C58.3782 6.16568 57.9175 7.76163 58.0373 9.36795C58.1571 10.9743 58.8494 12.4842 59.9884 13.6232C61.1274 14.7622 62.6374 15.4546 64.2437 15.5744C65.85 15.6941 67.446 15.2334 68.7413 14.276V14.276Z" stroke="#197BBD" stroke-width="1.5" stroke-linecap="round" stroke-linejoin="round"/>
<rect x="20.0939" y="38.4229" width="16.2694" height="13.4883" fill="white"/>
<path d="M28.2286 49.2589V39.7684" stroke="#197BBD" stroke-width="1.5" stroke-linecap="round" stroke-linejoin="round"/>
<path d="M28.2286 47.9134V38.4229" stroke="#197BBD" stroke-width="1.5" stroke-linecap="round" stroke-linejoin="round"/>
<path d="M23.4832 43.1682L28.2284 38.4229L32.9736 43.1682" stroke="#197BBD" stroke-width="1.5" stroke-linecap="round" stroke-linejoin="round"/>
<defs>
<clipPath id="clip0_1_152">
<rect width="16.2694" height="16.2694" fill="white" transform="translate(13.3541 68.3349) rotate(-45)"/>
</clipPath>
</defs>
</svg>
