<svg width="9" height="20" viewBox="0 0 9 20" fill="none" xmlns="http://www.w3.org/2000/svg">
<path d="M4.68557 16.3232C5.22188 16.2897 5.69786 16.1824 6.1135 16.0014C6.52915 15.8137 6.88111 15.5723 7.16938 15.2774C7.45764 14.9757 7.67552 14.6304 7.82301 14.2416C7.9705 13.8461 8.04424 13.4237 8.04424 12.9746C8.04424 12.5321 7.96044 12.1567 7.79284 11.8483C7.62524 11.5399 7.40066 11.2785 7.1191 11.0639C6.83753 10.8494 6.51239 10.6718 6.14367 10.531C5.78166 10.3835 5.39954 10.2461 4.9973 10.1187L4.68557 16.3232ZM4.68557 3.4315C4.17607 3.45831 3.73025 3.55217 3.34813 3.71306C2.97271 3.86725 2.65762 4.07172 2.40287 4.32647C2.14812 4.57452 1.95706 4.85944 1.82969 5.18123C1.70231 5.50302 1.63863 5.84156 1.63863 6.19687C1.63863 6.61252 1.71237 6.96783 1.85986 7.2628C2.00734 7.55777 2.20846 7.81252 2.46321 8.02705C2.71796 8.23487 3.00958 8.41588 3.33807 8.57007C3.67327 8.71755 4.02858 8.85498 4.404 8.98236L4.68557 3.4315ZM5.03752 9.18348C5.5135 9.33767 5.98613 9.50191 6.45541 9.67622C6.92468 9.84382 7.34368 10.0617 7.71239 10.3299C8.08111 10.598 8.37944 10.9299 8.60737 11.3254C8.8353 11.7209 8.94927 12.2204 8.94927 12.8237C8.94927 13.4003 8.85206 13.9433 8.65765 14.4528C8.46994 14.9623 8.19173 15.4114 7.82301 15.8003C7.45429 16.1824 7.00178 16.4908 6.46546 16.7254C5.93585 16.96 5.32914 17.0941 4.64534 17.1276L4.53473 19.2494C4.52802 19.3366 4.49786 19.4103 4.44422 19.4707C4.3973 19.531 4.32691 19.5612 4.23305 19.5612H3.87104L3.99171 17.1276C3.1336 17.0874 2.38611 16.9031 1.74924 16.5746C1.11907 16.2461 0.562643 15.8137 0.0799598 15.2774L0.351469 14.8852C0.431917 14.7846 0.525772 14.7343 0.633035 14.7343C0.69337 14.7343 0.767114 14.7712 0.854265 14.845C0.941416 14.9187 1.04868 15.0126 1.17605 15.1265C1.30343 15.2338 1.45427 15.3545 1.62857 15.4885C1.80287 15.6159 2.00399 15.7399 2.23192 15.8606C2.46656 15.9746 2.73137 16.0751 3.02634 16.1623C3.32131 16.2494 3.65651 16.3031 4.03193 16.3232L4.36378 9.91756C3.90791 9.77678 3.4621 9.62259 3.02634 9.45499C2.59058 9.28068 2.20176 9.05945 1.85986 8.7913C1.52466 8.51644 1.25315 8.18124 1.04533 7.78571C0.837505 7.38347 0.733594 6.88067 0.733594 6.27732C0.733594 5.80804 0.820745 5.35888 0.995047 4.92983C1.17605 4.49407 1.43416 4.1086 1.76935 3.7734C2.11125 3.4315 2.53025 3.15664 3.02634 2.94881C3.52243 2.74099 4.09227 2.62702 4.73585 2.60691L4.81629 0.927576C4.81629 0.833721 4.84311 0.756626 4.89674 0.69629C4.95037 0.635955 5.02076 0.605788 5.10791 0.605788H5.46993L5.36937 2.62703C6.04647 2.67395 6.63976 2.82479 7.14926 3.07954C7.65876 3.32759 8.12469 3.66278 8.54704 4.08513L8.3258 4.42703C8.25877 4.541 8.16826 4.59798 8.0543 4.59798C7.97385 4.59798 7.86659 4.54435 7.73251 4.43709C7.60513 4.32312 7.43418 4.1991 7.21965 4.06502C7.01183 3.92424 6.75373 3.79351 6.44535 3.67284C6.13697 3.54546 5.7649 3.46502 5.32914 3.4315L5.03752 9.18348Z" fill="#C7C7C7"/>
</svg>
