<svg width="25" height="25" viewBox="0 0 25 25" fill="none" xmlns="http://www.w3.org/2000/svg">
<path d="M12.4603 10.7103L6.95133 16.2203L5.08133 15.4433L4.91433 15.6123L7.29433 17.1993L8.88233 19.5793L9.05033 19.4113L8.27433 17.5413L13.7833 12.0333L18.1113 18.2853L18.3213 18.0773L15.4343 10.3813L19.8343 5.98333C20.0004 5.80602 20.0911 5.57107 20.0871 5.32815C20.0832 5.08522 19.9849 4.85336 19.8131 4.68156C19.6413 4.50976 19.4094 4.4115 19.1665 4.40754C18.9236 4.40357 18.6886 4.49423 18.5113 4.66033L14.1113 9.05933L6.41733 6.17333L6.20733 6.38233L12.4603 10.7103ZM17.8503 21.1933L13.5203 14.9403L10.4803 17.9803L11.2573 19.8503L8.59133 22.5153L5.94633 18.5483L1.97833 15.9023L4.64433 13.2363L6.51333 14.0123L9.55333 10.9723L3.30033 6.64433L5.94633 3.99933L13.6413 6.88433L17.1883 3.33733C17.4477 3.07166 17.7573 2.86011 18.099 2.71494C18.4408 2.56978 18.808 2.49389 19.1793 2.49167C19.5506 2.48945 19.9186 2.56095 20.2621 2.70202C20.6056 2.84309 20.9176 3.05093 21.1802 3.31348C21.4427 3.57604 21.6506 3.88809 21.7916 4.23156C21.9327 4.57503 22.0042 4.94308 22.002 5.31439C21.9998 5.68569 21.9239 6.05286 21.7787 6.39462C21.6336 6.73638 21.422 7.04593 21.1563 7.30533L17.6093 10.8523L20.4953 18.5483L17.8493 21.1933H17.8503Z" fill="#70A6E8"/>
</svg>
