<svg width="32" height="23" viewBox="0 0 32 23" fill="none" xmlns="http://www.w3.org/2000/svg">
<path d="M30.352 10.8425C29.0182 4.81207 27.0107 1.59341 24.0329 0.714216C23.407 0.53061 22.7577 0.438883 22.1054 0.441906C21.2432 0.441906 20.4923 0.651955 19.698 0.874583C18.7408 1.14312 17.6535 1.44813 16.068 1.44813C14.4826 1.44813 13.3946 1.14375 12.4356 0.875212C11.6406 0.651955 10.8904 0.441906 10.0307 0.441906C9.35614 0.439567 8.68456 0.531002 8.0352 0.713587C5.07313 1.589 3.06696 4.80641 1.71359 10.8387C0.258336 17.3301 0.974643 21.4286 3.72227 22.3795C4.0989 22.5123 4.49518 22.5807 4.89452 22.582C6.77679 22.582 8.28613 21.0142 9.31751 19.7306C10.4828 18.2779 11.8469 17.5408 16.068 17.5408C19.8382 17.5408 21.3985 18.0521 22.7462 19.7306C23.5933 20.7859 24.3939 21.5242 25.1926 21.989C26.2548 22.6065 27.3164 22.7436 28.3471 22.3896C29.9709 21.8355 30.9017 20.3708 31.1142 18.0351C31.2759 16.2441 31.0268 13.8914 30.352 10.8425ZM13.0493 10.5042H11.0369V12.5166C11.0369 12.7835 10.9309 13.0394 10.7422 13.2281C10.5535 13.4168 10.2975 13.5228 10.0307 13.5228C9.76381 13.5228 9.50787 13.4168 9.31916 13.2281C9.13046 13.0394 9.02445 12.7835 9.02445 12.5166V10.5042H7.012C6.74513 10.5042 6.48919 10.3981 6.30049 10.2094C6.11178 10.0207 6.00577 9.7648 6.00577 9.49794C6.00577 9.23107 6.11178 8.97513 6.30049 8.78643C6.48919 8.59772 6.74513 8.49171 7.012 8.49171H9.02445V6.47926C9.02445 6.21239 9.13046 5.95645 9.31916 5.76775C9.50787 5.57905 9.76381 5.47303 10.0307 5.47303C10.2975 5.47303 10.5535 5.57905 10.7422 5.76775C10.9309 5.95645 11.0369 6.21239 11.0369 6.47926V8.49171H13.0493C13.3162 8.49171 13.5722 8.59772 13.7609 8.78643C13.9496 8.97513 14.0556 9.23107 14.0556 9.49794C14.0556 9.7648 13.9496 10.0207 13.7609 10.2094C13.5722 10.3981 13.3162 10.5042 13.0493 10.5042ZM18.332 10.7557C18.0833 10.7557 17.8401 10.682 17.6332 10.5437C17.4264 10.4055 17.2652 10.2091 17.17 9.97927C17.0748 9.74944 17.0499 9.49654 17.0984 9.25255C17.147 9.00857 17.2667 8.78445 17.4426 8.60855C17.6186 8.43265 17.8427 8.31285 18.0867 8.26432C18.3306 8.21579 18.5835 8.2407 18.8134 8.3359C19.0432 8.4311 19.2396 8.59231 19.3778 8.79915C19.5161 9.00599 19.5898 9.24917 19.5898 9.49794C19.5898 9.83152 19.4573 10.1514 19.2214 10.3873C18.9855 10.6232 18.6656 10.7557 18.332 10.7557ZM21.0992 13.5228C20.8503 13.5228 20.607 13.449 20.4 13.3106C20.1931 13.1723 20.0319 12.9757 19.9368 12.7457C19.8417 12.5156 19.817 12.2626 19.8658 12.0185C19.9146 11.7744 20.0347 11.5503 20.2109 11.3746C20.3871 11.1988 20.6115 11.0792 20.8557 11.0311C21.0999 10.9829 21.3529 11.0082 21.5827 11.1039C21.8124 11.1996 22.0087 11.3613 22.1465 11.5686C22.2843 11.7758 22.3576 12.0193 22.3569 12.2682C22.3561 12.6012 22.2232 12.9204 21.9874 13.1556C21.7516 13.3908 21.4322 13.5228 21.0992 13.5228ZM21.0992 7.9886C20.8504 7.9886 20.6072 7.91483 20.4004 7.77662C20.1935 7.63842 20.0323 7.44198 19.9371 7.21215C19.8419 6.98232 19.817 6.72942 19.8655 6.48543C19.9141 6.24145 20.0339 6.01733 20.2098 5.84143C20.3857 5.66553 20.6098 5.54573 20.8538 5.4972C21.0978 5.44867 21.3507 5.47358 21.5805 5.56878C21.8103 5.66398 22.0068 5.82519 22.145 6.03203C22.2832 6.23887 22.3569 6.48205 22.3569 6.73082C22.3569 7.0644 22.2244 7.38432 21.9885 7.6202C21.7527 7.85608 21.4327 7.9886 21.0992 7.9886ZM23.8663 10.7557C23.6175 10.7557 23.3743 10.682 23.1675 10.5437C22.9606 10.4055 22.7994 10.2091 22.7042 9.97927C22.609 9.74944 22.5841 9.49654 22.6327 9.25255C22.6812 9.00857 22.801 8.78445 22.9769 8.60855C23.1528 8.43265 23.3769 8.31285 23.6209 8.26432C23.8649 8.21579 24.1178 8.2407 24.3476 8.3359C24.5774 8.4311 24.7739 8.59231 24.9121 8.79915C25.0503 9.00599 25.1241 9.24917 25.1241 9.49794C25.1241 9.83152 24.9915 10.1514 24.7557 10.3873C24.5198 10.6232 24.1999 10.7557 23.8663 10.7557Z" fill="url(#paint0_linear_1_280)"/>
<defs>
<linearGradient id="paint0_linear_1_280" x1="16.0693" y1="0.441833" x2="16.0693" y2="22.582" gradientUnits="userSpaceOnUse">
<stop stop-color="#22B04A"/>
<stop offset="1" stop-color="#1E9540"/>
</linearGradient>
</defs>
</svg>
