<svg width="144" height="121" viewBox="0 0 144 121" fill="none" xmlns="http://www.w3.org/2000/svg">
<path d="M32.8639 37.1538C32.8639 46.2289 25.5071 53.5857 16.4319 53.5857C7.35683 53.5857 0 46.2289 0 37.1538C0 32.369 2.04503 28.062 5.30871 25.0589C8.23521 22.3661 12.1416 20.7218 16.4319 20.7218C25.5071 20.7218 32.8639 28.0786 32.8639 37.1538Z" fill="#D15842"/>
<path d="M80.2876 37.1538C80.2876 46.2289 72.9308 53.5857 63.8557 53.5857C54.7806 53.5857 47.4237 46.2289 47.4237 37.1538C47.4237 35.9945 47.5438 34.8633 47.7721 33.7719C49.3313 26.3192 55.9398 20.7218 63.8557 20.7218C72.9308 20.7218 80.2876 28.0786 80.2876 37.1538Z" fill="#D15842"/>
<path d="M61.8341 17.5096C61.8341 25.7799 55.7242 32.6232 47.7721 33.7719C46.9982 33.8837 46.2069 33.9416 45.4021 33.9416C37.4263 33.9416 30.7777 28.2591 29.284 20.7218C29.0781 19.683 28.9702 18.6089 28.9702 17.5096C28.9702 16.0659 29.1564 14.6657 29.5061 13.3316C31.3544 6.27998 37.7707 1.0777 45.4021 1.0777C54.4772 1.0777 61.8341 8.43453 61.8341 17.5096Z" fill="#D15842"/>
<path d="M32.8639 37.1538C32.8639 46.2289 25.5071 53.5857 16.4319 53.5857H63.8557C54.7806 53.5857 47.4237 46.2289 47.4237 37.1538C47.4237 35.9945 47.5438 34.8633 47.7721 33.7719C46.9982 33.8837 46.2069 33.9416 45.4021 33.9416C37.4263 33.9416 30.7777 28.2591 29.284 20.7218H18.5653H16.4319C25.5071 20.7218 32.8639 28.0786 32.8639 37.1538Z" fill="#D15842"/>
<path d="M29.284 20.7218C29.0781 19.683 28.9702 18.6089 28.9702 17.5096C28.9702 16.0659 29.1564 14.6657 29.5061 13.3316C28.1329 15.795 24.0224 20.7218 18.5653 20.7218H29.284Z" fill="#D15842"/>
<path d="M112.103 24.1917C112.103 30.2023 107.231 35.0748 101.22 35.0748C95.2094 35.0748 90.3369 30.2023 90.3369 24.1917C90.3369 21.0228 91.6914 18.1701 93.8529 16.1812C95.7912 14.3977 98.3784 13.3087 101.22 13.3087C107.231 13.3087 112.103 18.1812 112.103 24.1917Z" fill="#D15842"/>
<path d="M143.512 24.1917C143.512 30.2023 138.64 35.0748 132.629 35.0748C126.619 35.0748 121.746 30.2023 121.746 24.1917C121.746 23.424 121.826 22.6748 121.977 21.9519C123.01 17.0159 127.387 13.3087 132.629 13.3087C138.64 13.3087 143.512 18.1812 143.512 24.1917Z" fill="#D15842"/>
<path d="M131.29 11.1812C131.29 16.6587 127.244 21.1911 121.977 21.9519C121.464 22.026 120.94 22.0643 120.407 22.0643C115.125 22.0643 110.721 18.3007 109.732 13.3087C109.596 12.6206 109.524 11.9093 109.524 11.1812C109.524 10.225 109.648 9.29761 109.879 8.41405C111.103 3.74366 115.353 0.298126 120.407 0.298126C126.418 0.298126 131.29 5.17065 131.29 11.1812Z" fill="#D15842"/>
<path d="M112.103 24.1917C112.103 30.2023 107.231 35.0748 101.22 35.0748H132.629C126.619 35.0748 121.746 30.2023 121.746 24.1917C121.746 23.424 121.826 22.6748 121.977 21.9519C121.464 22.026 120.94 22.0643 120.407 22.0643C115.125 22.0643 110.721 18.3007 109.732 13.3087H102.633H101.22C107.231 13.3087 112.103 18.1812 112.103 24.1917Z" fill="#D15842"/>
<path d="M109.732 13.3087C109.596 12.6206 109.524 11.9093 109.524 11.1812C109.524 10.225 109.648 9.29761 109.879 8.41405C108.97 10.0456 106.247 13.3087 102.633 13.3087H109.732Z" fill="#D15842"/>
<circle cx="80.4224" cy="74.6555" r="14.5666" transform="rotate(-30 80.4224 74.6555)" fill="#D15842"/>
<path d="M83.915 81.2759C83.0964 81.7485 82.3023 82.0744 81.5327 82.2537C80.7563 82.4213 79.9214 82.42 79.0279 82.2498C78.8017 82.2089 78.6003 82.1303 78.4239 82.0138C78.2476 81.8974 78.1121 81.7573 78.0176 81.5936C77.8623 81.3246 77.8208 81.0367 77.8932 80.7299C77.9704 80.4047 78.1552 80.1576 78.4476 79.9888C78.6698 79.8606 78.9091 79.816 79.1655 79.855C79.8192 79.961 80.4163 79.9826 80.957 79.9199C81.5094 79.8504 82.1072 79.63 82.7503 79.2587C83.183 79.0089 83.5435 78.7151 83.8317 78.3771C84.1132 78.0275 84.3009 77.6775 84.3948 77.327C84.482 76.9649 84.4411 76.6376 84.2724 76.3453C84.0698 75.9945 83.7924 75.757 83.4401 75.633C83.0879 75.5089 82.6481 75.49 82.121 75.576C81.587 75.6504 80.9598 75.8333 80.2392 76.1246C79.5537 76.3956 78.9173 76.576 78.3298 76.6657C77.7356 76.7437 77.1904 76.731 76.6941 76.6277C76.2029 76.506 75.7606 76.2936 75.3673 75.9905C74.9673 75.6757 74.6222 75.2669 74.3319 74.7641C73.893 74.004 73.7113 73.2436 73.7866 72.4829C73.8736 71.7154 74.1694 70.999 74.6739 70.3335C75.1784 69.668 75.8341 69.1023 76.641 68.6365C77.4011 68.1976 78.1702 67.9095 78.9484 67.772C79.7315 67.6161 80.429 67.5955 81.0408 67.71C81.5352 67.7831 81.8837 67.9951 82.0862 68.3459C82.2348 68.6032 82.2704 68.8945 82.1931 69.2197C82.1159 69.545 81.9428 69.7853 81.6738 69.9405C81.4984 70.0418 81.3101 70.0803 81.1091 70.0561C80.8274 70.0004 80.4883 69.9936 80.0915 70.0355C79.688 70.0658 79.2838 70.1354 78.879 70.2444C78.4674 70.3417 78.1096 70.4781 77.8056 70.6537C77.3028 70.944 76.9131 71.2547 76.6365 71.5859C76.3717 71.9103 76.2157 72.2342 76.1685 72.5577C76.1214 72.8812 76.1822 73.1891 76.351 73.4814C76.5536 73.8322 76.8218 74.0672 77.1556 74.1863C77.4943 74.2869 77.8972 74.296 78.3641 74.2135C78.8243 74.1194 79.3537 73.9696 79.9523 73.7643C80.7282 73.4879 81.4299 73.2854 82.0574 73.157C82.6966 73.0219 83.2726 72.9933 83.7855 73.0715C84.2916 73.1379 84.7538 73.3309 85.1723 73.6506C85.584 73.9586 85.962 74.4108 86.3063 75.0072C86.7452 75.7673 86.9128 76.5437 86.8091 77.3364C86.7055 78.129 86.3931 78.8707 85.8719 79.5614C85.3625 80.2453 84.7101 80.8168 83.915 81.2759ZM85.7248 81.4939C85.9003 81.798 85.9402 82.1102 85.8445 82.4305C85.7672 82.7557 85.5766 83.0061 85.2725 83.1817C84.9802 83.3505 84.6738 83.387 84.3535 83.2913C84.04 83.2073 83.7954 83.0132 83.6199 82.7092L75.4777 68.6065C75.3021 68.3025 75.2564 67.9936 75.3404 67.6801C75.4294 67.3481 75.6259 67.0943 75.9299 66.9188C76.2339 66.7432 76.5403 66.7067 76.8489 66.8091C77.1625 66.8932 77.407 67.0872 77.5826 67.3912L85.7248 81.4939Z" fill="#ED654C"/>
<circle cx="42.9311" cy="101.057" r="14.5666" transform="rotate(30 42.9311 101.057)" fill="#D15842"/>
<path d="M38.9436 107.392C38.125 106.92 37.4457 106.395 36.9056 105.818C36.3723 105.229 35.956 104.506 35.6567 103.647C35.5789 103.43 35.5464 103.217 35.559 103.006C35.5717 102.795 35.6253 102.607 35.7198 102.444C35.8751 102.175 36.1036 101.995 36.4055 101.904C36.7258 101.808 37.0322 101.845 37.3245 102.014C37.5467 102.142 37.705 102.327 37.7994 102.569C38.0344 103.188 38.3143 103.716 38.639 104.153C38.9753 104.596 39.465 105.004 40.1082 105.375C40.5409 105.625 40.9756 105.79 41.4124 105.871C41.8559 105.94 42.2529 105.927 42.6033 105.833C42.9606 105.728 43.2236 105.529 43.3923 105.236C43.5949 104.886 43.6618 104.527 43.5931 104.16C43.5244 103.792 43.3209 103.402 42.9828 102.989C42.6514 102.563 42.1794 102.112 41.5669 101.633C40.9894 101.175 40.515 100.714 40.1436 100.25C39.7789 99.7746 39.5173 99.2961 39.3586 98.8147C39.2184 98.3284 39.1812 97.8392 39.2471 97.3471C39.3197 96.8433 39.5011 96.3399 39.7914 95.8371C40.2303 95.077 40.7979 94.5394 41.4944 94.2243C42.2025 93.9159 42.9709 93.8138 43.7995 93.918C44.6281 94.0222 45.4458 94.3072 46.2526 94.773C47.0127 95.2119 47.6469 95.7339 48.155 96.3391C48.6816 96.9394 49.0482 97.5331 49.255 98.1202C49.4388 98.5849 49.4294 98.9927 49.2269 99.3435C49.0784 99.6008 48.8439 99.7773 48.5236 99.873C48.2033 99.9687 47.9087 99.9389 47.6397 99.7836C47.4643 99.6824 47.3368 99.5386 47.2573 99.3523C47.1647 99.0806 47.001 98.7834 46.7663 98.4608C46.5384 98.1265 46.276 97.8113 45.9792 97.5152C45.6891 97.2074 45.3921 96.9658 45.088 96.7902C44.5852 96.4999 44.1212 96.3178 43.6962 96.2439C43.2828 96.1767 42.9242 96.2036 42.6206 96.3245C42.3169 96.4454 42.0806 96.6521 41.9119 96.9444C41.7093 97.2952 41.6399 97.6449 41.7037 97.9936C41.7859 98.3373 41.9794 98.6907 42.2843 99.0538C42.596 99.4053 42.9903 99.7889 43.4675 100.205C44.0949 100.738 44.621 101.245 45.046 101.724C45.4826 102.21 45.7953 102.695 45.9841 103.178C46.1796 103.649 46.2436 104.146 46.1759 104.668C46.115 105.179 45.9124 105.732 45.5681 106.329C45.1293 107.089 44.5407 107.622 43.8024 107.929C43.0641 108.235 42.2656 108.336 41.4069 108.23C40.5599 108.13 39.7388 107.851 38.9436 107.392ZM39.6597 109.069C39.4841 109.373 39.2337 109.563 38.9085 109.641C38.5881 109.736 38.276 109.696 37.9719 109.521C37.6796 109.352 37.4948 109.105 37.4175 108.78C37.3335 108.466 37.3792 108.157 37.5548 107.853L45.697 93.7506C45.8725 93.4466 46.1171 93.2525 46.4306 93.1685C46.7626 93.0795 47.0807 93.1228 47.3847 93.2984C47.6887 93.4739 47.8736 93.7209 47.9391 94.0394C48.0231 94.353 47.9774 94.6618 47.8019 94.9658L39.6597 109.069Z" fill="#ED654C"/>
</svg>
