<svg width="137" height="35" viewBox="0 0 137 35" fill="none" xmlns="http://www.w3.org/2000/svg">
<path d="M60.6016 17.1022C61.5506 17.1022 62.3154 17.2529 62.896 17.5544C63.4766 17.8447 63.7669 18.2354 63.7669 18.7267C63.7669 18.9723 63.6943 19.1901 63.5492 19.3799C63.404 19.5585 63.2142 19.6478 62.9797 19.6478C62.8011 19.6478 62.656 19.6255 62.5443 19.5808C62.4327 19.525 62.321 19.458 62.2094 19.3799C62.1089 19.2905 62.0084 19.218 61.9079 19.1621C61.7963 19.1063 61.6288 19.0561 61.4055 19.0114C61.1933 18.9668 61.0203 18.9444 60.8863 18.9444C60.0489 18.9444 59.3902 19.2068 58.9101 19.7316C58.4412 20.2451 58.2067 20.9206 58.2067 21.758C58.2067 22.5619 58.4467 23.2318 58.9268 23.7677C59.4069 24.2925 60.021 24.5548 60.7691 24.5548C61.3162 24.5548 61.7237 24.4878 61.9916 24.3539C62.0586 24.3204 62.1479 24.2645 62.2596 24.1864C62.3824 24.0971 62.4941 24.0301 62.5945 23.9854C62.695 23.9408 62.8178 23.9184 62.963 23.9184C63.2421 23.9184 63.4598 24.0077 63.6161 24.1864C63.7836 24.365 63.8674 24.5939 63.8674 24.873C63.8674 25.141 63.711 25.3922 63.3984 25.6267C63.0858 25.8611 62.6727 26.0509 62.1591 26.1961C61.6455 26.3301 61.0984 26.3971 60.5179 26.3971C59.6582 26.3971 58.8989 26.1961 58.2402 25.7941C57.5926 25.3922 57.0902 24.8395 56.7329 24.1361C56.3756 23.4216 56.197 22.6289 56.197 21.758C56.197 20.8536 56.3812 20.0498 56.7497 19.3464C57.1293 18.643 57.654 18.0959 58.3239 17.7051C58.9938 17.3032 59.7531 17.1022 60.6016 17.1022ZM67.4957 25.208C67.4957 25.4983 67.3952 25.7439 67.1942 25.9449C67.0044 26.1347 66.7644 26.2296 66.4741 26.2296C66.195 26.2296 65.9605 26.1347 65.7707 25.9449C65.5809 25.7439 65.486 25.4983 65.486 25.208V14.858C65.486 14.5677 65.5809 14.3277 65.7707 14.1379C65.9717 13.9369 66.2173 13.8364 66.5076 13.8364C66.7867 13.8364 67.0212 13.9369 67.211 14.1379C67.4008 14.3277 67.4957 14.5677 67.4957 14.858V25.208ZM78.2771 21.758C78.2771 22.6512 78.0762 23.4551 77.6742 24.1696C77.2723 24.873 76.7196 25.4201 76.0162 25.8109C75.324 26.2017 74.5592 26.3971 73.7218 26.3971C72.8733 26.3971 72.1029 26.2017 71.4107 25.8109C70.7184 25.4201 70.1714 24.873 69.7694 24.1696C69.3675 23.4551 69.1665 22.6512 69.1665 21.758C69.1665 20.8648 69.3675 20.0665 69.7694 19.3631C70.1714 18.6485 70.7184 18.0959 71.4107 17.7051C72.1029 17.3032 72.8733 17.1022 73.7218 17.1022C74.5592 17.1022 75.324 17.3032 76.0162 17.7051C76.7196 18.0959 77.2723 18.6485 77.6742 19.3631C78.0762 20.0665 78.2771 20.8648 78.2771 21.758ZM76.2674 21.758C76.2674 21.2109 76.1502 20.7252 75.9157 20.301C75.6924 19.8655 75.3854 19.5306 74.9946 19.2961C74.615 19.0617 74.1908 18.9444 73.7218 18.9444C73.2529 18.9444 72.823 19.0617 72.4323 19.2961C72.0527 19.5306 71.7456 19.8655 71.5112 20.301C71.2879 20.7252 71.1762 21.2109 71.1762 21.758C71.1762 22.3051 71.2879 22.7908 71.5112 23.215C71.7456 23.6393 72.0527 23.9687 72.4323 24.2031C72.823 24.4376 73.2529 24.5548 73.7218 24.5548C74.1908 24.5548 74.615 24.4376 74.9946 24.2031C75.3854 23.9687 75.6924 23.6393 75.9157 23.215C76.1502 22.7908 76.2674 22.3051 76.2674 21.758ZM86.605 17.2697C86.8953 17.2697 87.1353 17.3702 87.3251 17.5711C87.5149 17.7609 87.6098 18.001 87.6098 18.2913V22.5451C87.6098 23.751 87.2749 24.6944 86.605 25.3755C85.9462 26.0565 85.0028 26.3971 83.7746 26.3971C82.5465 26.3971 81.603 26.0565 80.9443 25.3755C80.2856 24.6944 79.9562 23.751 79.9562 22.5451V18.2913C79.9562 18.001 80.0511 17.7609 80.2409 17.5711C80.4307 17.3702 80.6708 17.2697 80.9611 17.2697C81.2513 17.2697 81.4914 17.3702 81.6812 17.5711C81.871 17.7609 81.9659 18.001 81.9659 18.2913V22.5451C81.9659 23.2262 82.1166 23.7342 82.4181 24.0692C82.7195 24.3929 83.1717 24.5548 83.7746 24.5548C84.3887 24.5548 84.8465 24.3929 85.1479 24.0692C85.4494 23.7342 85.6001 23.2262 85.6001 22.5451V18.2913C85.6001 18.001 85.695 17.7609 85.8848 17.5711C86.0746 17.3702 86.3147 17.2697 86.605 17.2697ZM97.0372 13.8364C97.3275 13.8364 97.5676 13.9313 97.7574 14.1211C97.9472 14.3109 98.0421 14.5566 98.0421 14.858V25.208C98.0421 25.4983 97.9472 25.7439 97.7574 25.9449C97.5676 26.1347 97.3275 26.2296 97.0372 26.2296C96.7469 26.2296 96.5069 26.1347 96.3171 25.9449C96.1384 25.7551 96.0435 25.515 96.0324 25.2247C95.7532 25.5485 95.3736 25.8276 94.8935 26.0621C94.4246 26.2854 93.9278 26.3971 93.403 26.3971C92.6326 26.3971 91.9348 26.2017 91.3096 25.8109C90.6843 25.409 90.1875 24.8563 89.819 24.1529C89.4618 23.4495 89.2831 22.6512 89.2831 21.758C89.2831 20.8648 89.4618 20.0665 89.819 19.3631C90.1763 18.6485 90.662 18.0959 91.2761 17.7051C91.9013 17.3032 92.588 17.1022 93.336 17.1022C93.8719 17.1022 94.3744 17.2027 94.8433 17.4037C95.3122 17.5935 95.7086 17.8391 96.0324 18.1405V14.858C96.0324 14.5677 96.1273 14.3277 96.3171 14.1379C96.5069 13.9369 96.7469 13.8364 97.0372 13.8364ZM93.6542 24.5548C94.3799 24.5548 94.9717 24.2925 95.4295 23.7677C95.8872 23.2318 96.1161 22.5619 96.1161 21.758C96.1161 20.9541 95.8872 20.2842 95.4295 19.7483C94.9717 19.2124 94.3799 18.9444 93.6542 18.9444C92.9397 18.9444 92.3535 19.2124 91.8957 19.7483C91.438 20.2842 91.2091 20.9541 91.2091 21.758C91.2091 22.5619 91.4324 23.2318 91.879 23.7677C92.3368 24.2925 92.9285 24.5548 93.6542 24.5548ZM104.122 17.1022C105.071 17.1022 105.836 17.2529 106.417 17.5544C106.997 17.8447 107.287 18.2354 107.287 18.7267C107.287 18.9723 107.215 19.1901 107.07 19.3799C106.925 19.5585 106.735 19.6478 106.5 19.6478C106.322 19.6478 106.177 19.6255 106.065 19.5808C105.953 19.525 105.842 19.458 105.73 19.3799C105.629 19.2905 105.529 19.218 105.428 19.1621C105.317 19.1063 105.149 19.0561 104.926 19.0114C104.714 18.9668 104.541 18.9444 104.407 18.9444C103.57 18.9444 102.911 19.2068 102.431 19.7316C101.962 20.2451 101.727 20.9206 101.727 21.758C101.727 22.5619 101.967 23.2318 102.447 23.7677C102.928 24.2925 103.542 24.5548 104.29 24.5548C104.837 24.5548 105.244 24.4878 105.512 24.3539C105.579 24.3204 105.669 24.2645 105.78 24.1864C105.903 24.0971 106.015 24.0301 106.115 23.9854C106.216 23.9408 106.338 23.9184 106.484 23.9184C106.763 23.9184 106.98 24.0077 107.137 24.1864C107.304 24.365 107.388 24.5939 107.388 24.873C107.388 25.141 107.232 25.3922 106.919 25.6267C106.606 25.8611 106.193 26.0509 105.68 26.1961C105.166 26.3301 104.619 26.3971 104.038 26.3971C103.179 26.3971 102.42 26.1961 101.761 25.7941C101.113 25.3922 100.611 24.8395 100.254 24.1361C99.8962 23.4216 99.7176 22.6289 99.7176 21.758C99.7176 20.8536 99.9018 20.0498 100.27 19.3464C100.65 18.643 101.175 18.0959 101.845 17.7051C102.514 17.3032 103.274 17.1022 104.122 17.1022ZM116.091 17.1022C116.381 17.1022 116.621 17.1971 116.811 17.3869C117.001 17.5767 117.096 17.8223 117.096 18.1238V25.208C117.096 25.4983 117.001 25.7439 116.811 25.9449C116.621 26.1347 116.381 26.2296 116.091 26.2296C115.8 26.2296 115.56 26.1347 115.371 25.9449C115.192 25.7551 115.097 25.515 115.086 25.2247C114.807 25.5485 114.427 25.8276 113.947 26.0621C113.478 26.2854 112.981 26.3971 112.457 26.3971C111.686 26.3971 110.988 26.2017 110.363 25.8109C109.738 25.409 109.241 24.8563 108.873 24.1529C108.515 23.4495 108.337 22.6512 108.337 21.758C108.337 20.8648 108.515 20.0665 108.873 19.3631C109.23 18.6485 109.716 18.0959 110.33 17.7051C110.955 17.3032 111.642 17.1022 112.39 17.1022C112.925 17.1022 113.428 17.2027 113.897 17.4037C114.366 17.5935 114.762 17.8391 115.086 18.1405V18.1238C115.086 17.8335 115.181 17.5935 115.371 17.4037C115.56 17.2027 115.8 17.1022 116.091 17.1022ZM112.708 24.5548C113.434 24.5548 114.025 24.2925 114.483 23.7677C114.941 23.2318 115.17 22.5619 115.17 21.758C115.17 20.9541 114.941 20.2842 114.483 19.7483C114.025 19.2124 113.434 18.9444 112.708 18.9444C111.993 18.9444 111.407 19.2124 110.949 19.7483C110.492 20.2842 110.263 20.9541 110.263 21.758C110.263 22.5619 110.486 23.2318 110.933 23.7677C111.39 24.2925 111.982 24.5548 112.708 24.5548ZM118.754 24.8395C118.654 24.7056 118.604 24.5381 118.604 24.3371C118.604 24.0468 118.749 23.8012 119.039 23.6002C119.195 23.4997 119.357 23.4495 119.525 23.4495C119.759 23.4495 119.983 23.5556 120.195 23.7677C120.53 24.1138 120.876 24.3706 121.233 24.5381C121.601 24.7056 122.043 24.7893 122.556 24.7893C123.427 24.7558 123.862 24.4264 123.862 23.8012C123.862 23.4774 123.712 23.2318 123.41 23.0643C123.12 22.8968 122.662 22.7294 122.037 22.5619C121.389 22.3832 120.859 22.2046 120.446 22.026C120.044 21.8473 119.692 21.5794 119.391 21.2221C119.101 20.8536 118.955 20.3624 118.955 19.7483C118.955 19.2124 119.106 18.749 119.408 18.3583C119.72 17.9563 120.122 17.6493 120.613 17.4371C121.116 17.2138 121.646 17.1022 122.204 17.1022C122.774 17.1022 123.343 17.2083 123.913 17.4204C124.482 17.6325 124.929 17.9452 125.252 18.3583C125.398 18.5369 125.47 18.7379 125.47 18.9612C125.47 19.218 125.364 19.4301 125.152 19.5976C124.996 19.7204 124.817 19.7818 124.616 19.7818C124.37 19.7818 124.169 19.7036 124.013 19.5473C123.812 19.3017 123.55 19.1063 123.226 18.9612C122.913 18.816 122.556 18.7435 122.154 18.7435C121.306 18.7435 120.881 19.0505 120.881 19.6646C120.881 19.9102 120.959 20.1112 121.116 20.2675C121.272 20.4126 121.468 20.5299 121.702 20.6192C121.948 20.6973 122.288 20.7978 122.724 20.9206C123.326 21.0881 123.829 21.2612 124.231 21.4398C124.633 21.6184 124.973 21.892 125.252 22.2604C125.532 22.6289 125.671 23.1145 125.671 23.7175C125.671 24.2645 125.509 24.7446 125.185 25.1577C124.862 25.5597 124.443 25.8667 123.929 26.0789C123.427 26.291 122.908 26.3971 122.372 26.3971C121.635 26.3971 120.948 26.2742 120.312 26.0286C119.676 25.783 119.156 25.3866 118.754 24.8395ZM132.059 17.1022C133.164 17.1022 133.929 17.4427 134.353 18.1238C134.778 18.7937 134.99 19.726 134.99 20.9206V25.208C134.99 25.4983 134.895 25.7439 134.705 25.9449C134.515 26.1347 134.275 26.2296 133.985 26.2296C133.695 26.2296 133.455 26.1347 133.265 25.9449C133.075 25.7439 132.98 25.4983 132.98 25.208V20.9206C132.98 20.3066 132.857 19.8265 132.612 19.4803C132.377 19.1231 131.959 18.9444 131.356 18.9444C130.73 18.9444 130.239 19.1342 129.882 19.5138C129.536 19.8823 129.363 20.3512 129.363 20.9206V25.208C129.363 25.4983 129.268 25.7439 129.078 25.9449C128.888 26.1347 128.648 26.2296 128.358 26.2296C128.067 26.2296 127.827 26.1347 127.638 25.9449C127.448 25.7439 127.353 25.4983 127.353 25.208V14.858C127.353 14.5677 127.448 14.3277 127.638 14.1379C127.827 13.9369 128.067 13.8364 128.358 13.8364C128.648 13.8364 128.888 13.9369 129.078 14.1379C129.268 14.3277 129.363 14.5677 129.363 14.858V18.5592C129.664 18.1573 130.044 17.8168 130.501 17.5376C130.97 17.2473 131.49 17.1022 132.059 17.1022Z" fill="#0F4264"/>
<path d="M18.7542 25.1604C18.7542 30.0672 14.7765 34.0448 9.86975 34.0448C4.96303 34.0448 0.985352 30.0672 0.985352 25.1604C0.985352 22.5734 2.09106 20.2447 3.85566 18.621C5.43795 17.1651 7.55003 16.276 9.86975 16.276C14.7765 16.276 18.7542 20.2537 18.7542 25.1604Z" fill="#197BBD"/>
<path d="M44.3952 25.1604C44.3952 30.0672 40.4175 34.0448 35.5108 34.0448C30.604 34.0448 26.6264 30.0672 26.6264 25.1604C26.6264 24.5337 26.6913 23.9221 26.8147 23.332C27.6577 19.3024 31.2308 16.276 35.5108 16.276C40.4175 16.276 44.3952 20.2537 44.3952 25.1604Z" fill="#197BBD"/>
<path d="M34.4177 14.5393C34.4177 19.0109 31.1143 22.7109 26.8147 23.332C26.3963 23.3924 25.9685 23.4237 25.5333 23.4237C21.221 23.4237 17.6262 20.3513 16.8186 16.276C16.7073 15.7144 16.6489 15.1336 16.6489 14.5393C16.6489 13.7587 16.7496 13.0016 16.9386 12.2803C17.938 8.46764 21.4072 5.65488 25.5333 5.65488C30.44 5.65488 34.4177 9.63256 34.4177 14.5393Z" fill="#197BBD"/>
<path d="M18.7542 25.1604C18.7542 30.0672 14.7765 34.0448 9.86975 34.0448H35.5108C30.604 34.0448 26.6264 30.0672 26.6264 25.1604C26.6264 24.5337 26.6913 23.9221 26.8147 23.332C26.3963 23.3924 25.9685 23.4237 25.5333 23.4237C21.221 23.4237 17.6262 20.3513 16.8186 16.276H11.0232H9.86975C14.7765 16.276 18.7542 20.2537 18.7542 25.1604Z" fill="#197BBD"/>
<path d="M16.8186 16.276C16.7073 15.7144 16.6489 15.1336 16.6489 14.5393C16.6489 13.7587 16.7496 13.0016 16.9386 12.2803C16.1962 13.6122 13.9738 16.276 11.0232 16.276H16.8186Z" fill="#197BBD"/>
<circle cx="35.6525" cy="11.8348" r="8.01481" transform="rotate(-30 35.6525 11.8348)" fill="#FFC145"/>
<path d="M38.8881 12.0246C39.1741 12.52 39.2483 13.0348 39.1106 13.569C38.9729 14.1032 38.6769 14.5786 38.2226 14.9953L38.5681 15.5937C38.6647 15.761 38.6866 15.9327 38.634 16.109C38.5914 16.2879 38.4865 16.4257 38.3193 16.5223C38.1584 16.6152 37.9899 16.6353 37.8136 16.5826C37.6411 16.5364 37.5065 16.4296 37.4099 16.2623L37.0979 15.7219C36.7319 15.8903 36.3707 16.0002 36.0143 16.0515C35.6643 16.0992 35.2873 16.0852 34.8834 16.0096C34.6205 15.9554 34.4352 15.8351 34.3275 15.6485C34.242 15.5005 34.2224 15.3403 34.2687 15.1677C34.3112 14.9888 34.4096 14.8547 34.5641 14.7655C34.6863 14.695 34.818 14.6704 34.9591 14.6919C35.2514 14.7376 35.5155 14.7567 35.7514 14.7492C35.9835 14.7353 36.2151 14.6831 36.446 14.5927L35.3594 12.7107C33.9287 13.2193 32.9087 12.946 32.2995 11.8908C31.9912 11.3568 31.9187 10.8152 32.0822 10.2662C32.2419 9.71073 32.5858 9.22908 33.1138 8.82126L32.9299 8.50277C32.8334 8.33548 32.8082 8.16557 32.8544 7.99304C32.9034 7.81036 33.0115 7.67073 33.1788 7.57415C33.3396 7.48128 33.5082 7.46118 33.6844 7.51384C33.857 7.56007 33.9915 7.66683 34.0881 7.83412L34.2943 8.19121C34.8969 7.97197 35.4624 7.91139 35.9909 8.00949C36.2629 8.04974 36.4547 8.16638 36.5661 8.35941C36.6515 8.50739 36.673 8.67087 36.6305 8.84983C36.5843 9.02236 36.4872 9.15135 36.3392 9.23679C36.2427 9.29251 36.1391 9.31371 36.0284 9.30038C35.7425 9.25096 35.3892 9.27051 34.9685 9.359L35.9993 11.1445C36.7089 10.9321 37.2888 10.889 37.7391 11.0151C38.1856 11.1347 38.5686 11.4712 38.8881 12.0246ZM33.4105 11.185C33.5331 11.3974 33.7009 11.5321 33.9141 11.5892C34.1235 11.6399 34.3824 11.6276 34.6907 11.5525L33.7658 9.95045C33.5317 10.1542 33.3861 10.3627 33.329 10.5758C33.2719 10.7889 33.299 10.992 33.4105 11.185ZM37.554 13.8372C37.696 13.6522 37.7896 13.4652 37.8348 13.2761C37.8763 13.0805 37.8544 12.9088 37.7689 12.7608C37.6649 12.5806 37.5243 12.4559 37.3471 12.3867C37.1661 12.311 36.9435 12.2894 36.6791 12.3219L37.554 13.8372Z" fill="#404040"/>
</svg>
