<svg width="31" height="27" viewBox="0 0 31 27" fill="none" xmlns="http://www.w3.org/2000/svg">
<path d="M15.3056 0.678314C14.6056 0.678314 14.3723 1.14498 13.9056 1.61165L0.37231 23.7783C0.138977 24.0116 0.138977 24.4783 0.138977 24.7116C0.138977 25.8783 1.07231 26.345 1.77231 26.345H28.839C29.7723 26.345 30.4723 25.8783 30.4723 24.7116C30.4723 24.245 30.4723 24.245 30.239 23.7783L16.939 1.61165C16.4723 1.14498 16.0056 0.678314 15.3056 0.678314ZM15.3056 4.17831L23.0056 17.0116H21.139L17.639 13.5116L15.3056 17.0116L12.9723 13.5116L9.47231 17.0116H7.37231L15.3056 4.17831Z" fill="url(#paint0_linear_1_230)"/>
<defs>
<linearGradient id="paint0_linear_1_230" x1="15.3056" y1="0.678314" x2="15.3056" y2="26.345" gradientUnits="userSpaceOnUse">
<stop stop-color="#7CB4F9"/>
<stop offset="1" stop-color="#6DA2E4"/>
</linearGradient>
</defs>
</svg>
