<svg width="20" height="20" viewBox="0 0 20 20" fill="none" xmlns="http://www.w3.org/2000/svg">
<path d="M9.69066 12.566C10.9692 12.566 12.0056 11.5296 12.0056 10.2511C12.0056 8.9726 10.9692 7.93616 9.69066 7.93616C8.41216 7.93616 7.37573 8.9726 7.37573 10.2511C7.37573 11.5296 8.41216 12.566 9.69066 12.566Z" stroke="#C7C7C7" stroke-width="2" stroke-linecap="round" stroke-linejoin="round"/>
<path d="M15.4006 12.5658C15.2979 12.7986 15.2673 13.0567 15.3127 13.3071C15.3581 13.5574 15.4774 13.7884 15.6553 13.9702L15.7016 14.0165C15.8451 14.1599 15.9589 14.3301 16.0366 14.5174C16.1142 14.7048 16.1542 14.9056 16.1542 15.1084C16.1542 15.3112 16.1142 15.512 16.0366 15.6994C15.9589 15.8867 15.8451 16.0569 15.7016 16.2003C15.5583 16.3438 15.388 16.4576 15.2007 16.5353C15.0133 16.6129 14.8125 16.6529 14.6097 16.6529C14.4069 16.6529 14.2061 16.6129 14.0187 16.5353C13.8314 16.4576 13.6612 16.3438 13.5178 16.2003L13.4715 16.154C13.2897 15.9761 13.0587 15.8567 12.8084 15.8114C12.5581 15.766 12.2999 15.7966 12.0671 15.8993C11.8389 15.9971 11.6443 16.1596 11.5072 16.3666C11.3701 16.5736 11.2965 16.8162 11.2955 17.0645V17.1957C11.2955 17.605 11.1329 17.9975 10.8435 18.287C10.5541 18.5764 10.1615 18.739 9.75221 18.739C9.3429 18.739 8.95036 18.5764 8.66094 18.287C8.37152 17.9975 8.20892 17.605 8.20892 17.1957V17.1262C8.20294 16.8708 8.12027 16.6231 7.97165 16.4153C7.82302 16.2075 7.61532 16.0493 7.37554 15.9611C7.1428 15.8583 6.88463 15.8277 6.63431 15.8731C6.38399 15.9185 6.15301 16.0378 5.97115 16.2157L5.92485 16.262C5.78152 16.4055 5.61132 16.5193 5.42396 16.597C5.23661 16.6747 5.03579 16.7146 4.83298 16.7146C4.63017 16.7146 4.42934 16.6747 4.24199 16.597C4.05464 16.5193 3.88443 16.4055 3.7411 16.262C3.59761 16.1187 3.48378 15.9485 3.40612 15.7611C3.32845 15.5738 3.28848 15.3729 3.28848 15.1701C3.28848 14.9673 3.32845 14.7665 3.40612 14.5791C3.48378 14.3918 3.59761 14.2216 3.7411 14.0783L3.7874 14.032C3.96529 13.8501 4.08463 13.6191 4.13001 13.3688C4.1754 13.1185 4.14476 12.8603 4.04204 12.6276C3.94423 12.3993 3.78181 12.2047 3.57478 12.0676C3.36776 11.9305 3.12516 11.8569 2.87686 11.8559H2.74568C2.33637 11.8559 1.94383 11.6933 1.65441 11.4039C1.36499 11.1145 1.20239 10.7219 1.20239 10.3126C1.20239 9.90333 1.36499 9.51079 1.65441 9.22136C1.94383 8.93194 2.33637 8.76934 2.74568 8.76934H2.81513C3.07054 8.76337 3.31824 8.6807 3.52604 8.53207C3.73384 8.38345 3.89212 8.17575 3.98031 7.93597C4.08303 7.70323 4.11367 7.44505 4.06828 7.19474C4.02289 6.94442 3.90356 6.71344 3.72567 6.53158L3.67937 6.48528C3.53588 6.34195 3.42205 6.17174 3.34438 5.98439C3.26672 5.79704 3.22674 5.59621 3.22674 5.3934C3.22674 5.19059 3.26672 4.98977 3.34438 4.80241C3.42205 4.61506 3.53588 4.44486 3.67937 4.30153C3.8227 4.15804 3.99291 4.0442 4.18026 3.96654C4.36761 3.88888 4.56843 3.8489 4.77125 3.8489C4.97406 3.8489 5.17488 3.88888 5.36223 3.96654C5.54958 4.0442 5.71979 4.15804 5.86312 4.30153L5.90942 4.34782C6.09128 4.52572 6.32226 4.64505 6.57258 4.69044C6.8229 4.73582 7.08107 4.70518 7.31381 4.60247H7.37554C7.60377 4.50465 7.79842 4.34223 7.93552 4.13521C8.07262 3.92819 8.1462 3.68559 8.14719 3.43728V3.30611C8.14719 2.8968 8.30978 2.50426 8.59921 2.21484C8.88863 1.92541 9.28117 1.76282 9.69048 1.76282C10.0998 1.76282 10.4923 1.92541 10.7817 2.21484C11.0712 2.50426 11.2338 2.8968 11.2338 3.30611V3.37555C11.2348 3.62386 11.3083 3.86645 11.4454 4.07348C11.5825 4.2805 11.7772 4.44292 12.0054 4.54074C12.2381 4.64345 12.4963 4.67409 12.7466 4.62871C12.997 4.58332 13.2279 4.46399 13.4098 4.28609L13.4561 4.23979C13.5994 4.0963 13.7696 3.98247 13.957 3.90481C14.1443 3.82714 14.3452 3.78717 14.548 3.78717C14.7508 3.78717 14.9516 3.82714 15.139 3.90481C15.3263 3.98247 15.4965 4.0963 15.6398 4.23979C15.7833 4.38312 15.8972 4.55333 15.9748 4.74068C16.0525 4.92804 16.0925 5.12886 16.0925 5.33167C16.0925 5.53448 16.0525 5.73531 15.9748 5.92266C15.8972 6.11001 15.7833 6.28022 15.6398 6.42355L15.5936 6.46984C15.4157 6.65171 15.2963 6.88269 15.2509 7.133C15.2056 7.38332 15.2362 7.6415 15.3389 7.87424V7.93597C15.4367 8.1642 15.5991 8.35884 15.8062 8.49594C16.0132 8.63305 16.2558 8.70662 16.5041 8.70761H16.6353C17.0446 8.70761 17.4371 8.87021 17.7265 9.15963C18.016 9.44905 18.1786 9.84159 18.1786 10.2509C18.1786 10.6602 18.016 11.0527 17.7265 11.3422C17.4371 11.6316 17.0446 11.7942 16.6353 11.7942H16.5658C16.3175 11.7952 16.0749 11.8688 15.8679 12.0059C15.6609 12.143 15.4985 12.3376 15.4006 12.5658V12.5658Z" stroke="#C7C7C7" stroke-width="2" stroke-linecap="round" stroke-linejoin="round"/>
</svg>
