<svg width="18" height="18" viewBox="0 0 18 18" fill="none" xmlns="http://www.w3.org/2000/svg">
<rect x="0.648926" y="0.605438" width="16.9996" height="16.9996" rx="5" fill="#EFEFEF"/>
<path d="M13.0417 13.4853V12.512C13.0417 11.9957 12.8366 11.5006 12.4716 11.1355C12.1065 10.7705 11.6114 10.5654 11.0951 10.5654H7.20195C6.68569 10.5654 6.19057 10.7705 5.82551 11.1355C5.46046 11.5006 5.25537 11.9957 5.25537 12.512V13.4853" stroke="black" stroke-width="0.973292" stroke-linecap="round" stroke-linejoin="round"/>
<path d="M9.14824 8.61872C10.2233 8.61872 11.0948 7.74721 11.0948 6.67214C11.0948 5.59707 10.2233 4.72556 9.14824 4.72556C8.07318 4.72556 7.20166 5.59707 7.20166 6.67214C7.20166 7.74721 8.07318 8.61872 9.14824 8.61872Z" stroke="black" stroke-width="0.973292" stroke-linecap="round" stroke-linejoin="round"/>
</svg>
