<svg width="22" height="21" viewBox="0 0 22 21" fill="none" xmlns="http://www.w3.org/2000/svg">
<path d="M11.4603 8.71033L5.95133 14.2203L4.08133 13.4433L3.91433 13.6123L6.29433 15.1993L7.88233 17.5793L8.05033 17.4113L7.27433 15.5413L12.7833 10.0333L17.1113 16.2853L17.3213 16.0773L14.4343 8.38133L18.8343 3.98333C19.0004 3.80602 19.0911 3.57107 19.0871 3.32815C19.0832 3.08522 18.9849 2.85336 18.8131 2.68156C18.6413 2.50976 18.4094 2.4115 18.1665 2.40754C17.9236 2.40357 17.6886 2.49423 17.5113 2.66033L13.1113 7.05933L5.41733 4.17333L5.20733 4.38233L11.4603 8.71033ZM16.8503 19.1933L12.5203 12.9403L9.48033 15.9803L10.2573 17.8503L7.59133 20.5153L4.94633 16.5483L0.978333 13.9023L3.64433 11.2363L5.51333 12.0123L8.55333 8.97233L2.30033 4.64433L4.94633 1.99933L12.6413 4.88433L16.1883 1.33733C16.4477 1.07166 16.7573 0.860106 17.099 0.714943C17.4408 0.569781 17.808 0.493891 18.1793 0.491673C18.5506 0.489455 18.9186 0.560952 19.2621 0.702021C19.6056 0.84309 19.9176 1.05093 20.1802 1.31348C20.4427 1.57604 20.6506 1.88809 20.7916 2.23156C20.9327 2.57503 21.0042 2.94308 21.002 3.31439C20.9998 3.68569 20.9239 4.05286 20.7787 4.39462C20.6336 4.73638 20.422 5.04593 20.1563 5.30533L16.6093 8.85233L19.4953 16.5483L16.8493 19.1933H16.8503Z" fill="#70A6E8"/>
</svg>
