<svg width="23" height="19" viewBox="0 0 23 19" fill="none" xmlns="http://www.w3.org/2000/svg">
<path d="M12.8545 1.2763H3.28418C2.17961 1.2763 1.28418 2.17173 1.28418 3.2763V11.0372C1.28418 12.1418 2.17961 13.0372 3.28418 13.0372H12.8545C13.9591 13.0372 14.8545 12.1418 14.8545 11.0373V3.2763C14.8545 2.17173 13.9591 1.2763 12.8545 1.2763Z" stroke="#22A447" stroke-width="2" stroke-linecap="round" stroke-linejoin="round"/>
<path d="M14.8535 7.80071C14.8535 6.69614 15.7489 5.80071 16.8535 5.80071H17.6438C18.1743 5.80071 18.683 6.01143 19.0581 6.3865L20.6006 7.92899C20.9756 8.30407 21.1863 8.81277 21.1863 9.34321V11.0382C21.1863 12.1428 20.2909 13.0382 19.1863 13.0382H16.8535C15.7489 13.0382 14.8535 12.1428 14.8535 11.0382V7.80071Z" stroke="#22A447" stroke-width="2" stroke-linecap="round" stroke-linejoin="round"/>
<path d="M5.35547 17.5595C6.60459 17.5595 7.61719 16.5469 7.61719 15.2978C7.61719 14.0487 6.60459 13.0361 5.35547 13.0361C4.10636 13.0361 3.09375 14.0487 3.09375 15.2978C3.09375 16.5469 4.10636 17.5595 5.35547 17.5595Z" stroke="#22A447" stroke-width="2" stroke-linecap="round" stroke-linejoin="round"/>
<path d="M17.1152 17.5595C18.3644 17.5595 19.377 16.5469 19.377 15.2978C19.377 14.0487 18.3644 13.0361 17.1152 13.0361C15.8661 13.0361 14.8535 14.0487 14.8535 15.2978C14.8535 16.5469 15.8661 17.5595 17.1152 17.5595Z" stroke="#22A447" stroke-width="2" stroke-linecap="round" stroke-linejoin="round"/>
</svg>
