<svg width="20" height="19" viewBox="0 0 20 19" fill="none" xmlns="http://www.w3.org/2000/svg">
<path d="M7.39746 17.6432C7.81659 17.6432 8.15636 17.3034 8.15636 16.8843C8.15636 16.4652 7.81659 16.1254 7.39746 16.1254C6.97832 16.1254 6.63855 16.4652 6.63855 16.8843C6.63855 17.3034 6.97832 17.6432 7.39746 17.6432Z" stroke="#F8964C" stroke-width="2" stroke-linecap="round" stroke-linejoin="round"/>
<path d="M15.7441 17.6432C16.1632 17.6432 16.503 17.3034 16.503 16.8843C16.503 16.4652 16.1632 16.1254 15.7441 16.1254C15.3249 16.1254 14.9852 16.4652 14.9852 16.8843C14.9852 17.3034 15.3249 17.6432 15.7441 17.6432Z" stroke="#F8964C" stroke-width="2" stroke-linecap="round" stroke-linejoin="round"/>
<path d="M1.32422 1.70596H4.35985L6.39372 11.8677C6.46311 12.2171 6.65319 12.531 6.93068 12.7544C7.20816 12.9777 7.55537 13.0964 7.91153 13.0896H15.2881C15.6443 13.0964 15.9915 12.9777 16.269 12.7544C16.5464 12.531 16.7365 12.2171 16.8059 11.8677L18.0202 5.5005H5.11875" stroke="#F8964C" stroke-width="2" stroke-linecap="round" stroke-linejoin="round"/>
</svg>
